<svg width="444" height="605" viewBox="0 0 444 605" fill="none" xmlns="http://www.w3.org/2000/svg">
<g clip-path="url(#clip0_272_26366)">
<rect width="443.352" height="604.968" fill="#FFFCFA"/>
<rect x="1.6" y="1.6" width="440" height="601.6" stroke="#E17858" stroke-width="3.2"/>
<path d="M80.1261 556.837C80.6663 581.885 81.2139 606.926 81.7319 631.975C81.7615 633.314 81.6209 634.653 81.5617 636C176.797 636 272.04 636 367.276 636C368.874 617.338 370.458 598.675 372.064 580.006C374.92 546.847 377.488 513.666 380.729 480.545C383.903 448.045 387.722 415.604 391.333 383.148C394.419 355.421 396.823 327.679 393.101 299.819C392.014 291.642 391.081 283.391 386.937 276.006C382.246 267.652 374.883 263.508 365.478 263.079C352.24 262.479 340.651 267.519 329.67 274.223C319.555 280.394 310.993 288.283 304.259 298.102C302.683 300.396 300.937 302.579 298.591 304.562C299.619 281.26 300.648 257.958 301.699 234.205C307.7 235.996 310.297 231.815 312.702 227.545C315.847 221.966 319.414 216.519 321.671 210.585C323.447 205.908 324.357 200.543 324.142 195.548C323.861 188.992 319.769 186.328 313.265 187.061C310.704 187.349 308.174 187.867 305.014 188.385C305.014 186.631 305.11 184.981 304.999 183.338C303.786 165.135 297.429 149.24 283.429 137.082C261.296 117.865 221.907 120.137 203.577 141.811C199.744 146.347 197.154 151.926 193.994 157.032C194.668 157.809 195.341 158.579 196.022 159.356C196.607 159.252 197.191 159.148 197.783 159.052C201.527 150.084 207.795 143.402 216.224 138.666C222.217 135.388 228.67 134.485 235.389 135.003C236.699 135.003 238.016 135.003 239.326 135.003C245.142 135.728 250.98 136.364 256.767 137.26C257.877 137.43 258.817 138.636 259.838 139.361C265.543 140.19 269.968 143.187 273.594 147.516C274.593 148.345 275.962 148.974 276.532 150.032C278.811 154.279 280.839 158.66 282.962 162.996C284.635 172.18 286.3 181.363 287.972 190.546C287.713 196.666 287.447 202.785 287.188 208.912C287.003 210.37 286.87 211.843 286.618 213.293C283.628 230.919 278.16 247.591 267.423 262.169C266.527 263.382 265.136 264.241 263.975 265.262C260.667 268.333 257.359 271.396 254.051 274.467C252.675 275.622 251.432 277.005 249.9 277.901C241.006 283.14 231.253 282.97 221.485 281.934C218.384 281.608 215.395 280.261 212.361 279.381C211.214 281.786 210.067 284.191 208.92 286.595C208.92 291.946 208.92 297.303 208.92 303.393C205.871 301.639 203.681 300.381 201.483 299.116C197.887 303.371 194.298 307.626 190.702 311.881C188.733 313.834 186.765 315.788 184.797 317.741C183.79 318.629 182.895 319.71 181.755 320.368C175.488 323.987 169.161 327.502 162.856 331.054C163.152 356.753 163.455 382.453 163.751 408.152C164.454 409.588 165.157 411.031 165.86 412.466C168.258 419.437 170.678 426.4 173.016 433.386C173.171 433.859 172.742 434.525 172.587 435.11C173.075 436.079 173.564 437.041 174.045 438.011C175.791 440.001 177.53 441.992 179.276 443.99C180.482 445.277 181.689 446.572 182.902 447.86C183.553 448.555 184.56 449.14 184.804 449.954C186.994 457.405 189.051 464.894 191.146 472.375C193.144 479.59 192.899 486.768 190.398 493.79C188.008 500.517 185.366 507.147 182.836 513.822C181.888 519.372 180.993 524.929 179.95 530.456C179.72 531.677 178.988 532.802 178.484 533.964C176.901 538.855 175.317 543.747 173.734 548.638C168.08 556.186 160.281 559.656 151.113 560.514C150.128 560.263 149.152 560.019 148.167 559.767C145.126 560.966 142.077 562.142 139.043 563.356C134.145 565.317 129.394 567.855 124.325 569.18C111.479 572.532 98.9586 572.554 88.0291 563.341C85.4318 561.143 82.7679 559.005 80.1261 556.837ZM311.267 221.81C310.364 222.964 309.676 224.541 308.492 225.162C307.056 225.924 304.807 226.62 303.615 225.998C302.202 225.266 301.543 223.09 300.552 221.544C300.848 221.381 301.144 221.218 301.44 221.063C304.296 227.079 305.229 227.19 309.957 222.136C310.209 221.869 310.475 221.618 310.741 221.359C314.227 214.062 317.949 206.84 318.038 198.456C318.852 207.121 315.736 214.662 311.267 221.81ZM336.101 357.619C335.257 357.959 334.273 358.122 333.599 358.67C331.794 360.142 330.122 361.785 328.397 363.354C328.183 363.102 327.976 362.851 327.761 362.599C330.765 359.854 333.77 357.101 336.774 354.356C337.063 354.57 337.344 354.785 337.632 354.992C337.351 356.124 337.077 357.264 336.796 358.396C333.34 368.504 329.877 378.62 326.422 388.728C326.118 389.919 325.815 391.118 325.519 392.309C320.124 413.939 314.693 435.561 309.365 457.213C308.388 461.194 307.811 465.279 307.056 469.312C306.731 469.26 306.405 469.216 306.072 469.164C306.346 467.299 306.516 465.412 306.916 463.577C310.105 449.014 313.087 434.407 316.639 419.933C319.281 409.181 322.692 398.614 325.763 387.966C329.211 377.872 332.66 367.749 336.101 357.619ZM297.592 593.177C297.592 600.126 297.592 607.074 297.592 614.023C297.34 614.03 297.096 614.045 296.845 614.052C296.845 609.087 296.845 604.129 296.845 599.164C296.63 590.499 296.312 581.841 296.238 573.176C296.201 569.165 296.645 565.147 296.867 561.136C297.185 552.212 297.503 543.295 297.814 534.371C298.147 534.393 298.48 534.408 298.813 534.43C298.406 544.56 297.992 554.698 297.585 564.829C297.592 574.278 297.592 583.728 297.592 593.177ZM300.826 503.21C301.24 503.218 301.654 503.232 302.069 503.24C301.255 511.365 300.433 519.49 299.619 527.615C299.242 527.578 298.865 527.541 298.487 527.504C299.272 519.401 300.049 511.306 300.826 503.21ZM277.487 401.263C277.509 401.27 278.419 401.626 278.87 401.803C279.24 404.186 279.551 406.184 280.017 409.129C278.804 407.101 278.145 405.999 277.376 404.726C275.844 405.969 274.541 407.028 273.239 408.086C273.173 407.967 273.113 407.849 273.047 407.73C274.467 405.666 275.888 403.594 277.487 401.263Z" fill="#244C43"/>
<path d="M174.067 438.003C173.579 437.034 173.09 436.072 172.609 435.102C171.662 433.571 170.722 432.046 169.775 430.514C167.718 427.436 165.653 424.358 163.596 421.287C162.901 419.94 161.606 418.601 161.598 417.247C161.517 388.513 161.583 359.78 161.62 331.046C162.568 330.306 163.441 329.44 164.469 328.841C170.337 325.459 176.228 322.129 182.133 318.814C182.969 318.348 183.916 318.089 184.812 317.726C186.78 315.773 188.748 313.819 190.717 311.866C194.313 307.419 197.909 302.979 201.513 298.531C203.474 294.824 205.435 291.117 207.396 287.409C208.876 282.925 210.348 278.433 211.828 273.949C211.821 273.786 211.813 273.631 211.806 273.468C212.324 272.299 212.835 271.13 213.353 269.961L213.338 270.02C213.412 268.14 213.478 266.261 213.552 264.381C213.686 264.374 213.819 264.359 213.952 264.344C214.204 263.116 214.455 261.895 214.707 260.674L214.818 260.415C214.359 258.802 213.893 257.189 213.434 255.575C213.515 254.458 213.597 253.341 213.678 252.245C217.297 253.193 220.427 254.007 223.55 254.821C224.867 254.821 226.176 254.813 227.494 254.813C234.035 252.778 240.466 250.174 244.032 244.039C247.636 237.838 250.3 231.082 253.371 224.57C254.081 220.996 254.792 217.422 255.502 213.848C255.502 210.104 255.502 206.352 255.502 202.608C254.533 197.576 253.556 192.551 252.586 187.519C250.366 184.907 248.147 182.302 245.927 179.69C236.026 175.221 225.999 174.081 215.758 178.521C214.204 178.825 212.701 181.518 211.073 178.632C210.592 178.144 210.104 177.663 209.623 177.174C207.899 174.192 206.167 171.203 204.443 168.221C201.639 165.261 198.834 162.301 196.03 159.341C195.356 158.564 194.683 157.794 194.002 157.017C189.436 154.686 185.078 151.778 180.283 150.121C159.267 142.832 138.614 143.816 121.284 158.416C106.603 170.781 98.2411 187.786 97.9969 207.373C97.7675 225.584 98.7369 243.832 99.8098 262.028C100.195 268.569 102.415 275.007 103.798 281.497C108.12 291.08 112.937 300.381 119.575 308.625C123.275 312.325 126.975 316.025 130.667 319.724C134.596 322.455 138.526 325.178 142.455 327.901C145.311 328.656 145.245 330.898 145.245 333.199C145.222 357.375 145.237 381.542 145.208 405.718C145.208 407.116 144.912 408.507 144.742 410.017C139.169 409.277 134.056 408.596 128.95 407.915C128.092 407.849 127.226 407.856 126.383 407.708C119.871 406.583 117.888 407.375 114.595 413.214C113.278 415.545 112.478 418.179 111.613 420.732C110.917 422.774 110.473 424.898 109.911 426.985C109.94 421.331 111.287 416.077 114.343 411.401C117.096 407.19 120.47 404.282 126.02 406.398C126.901 406.739 127.966 406.591 128.95 406.672C132.598 407.183 136.298 407.464 139.88 408.263C142.921 408.944 143.854 408.041 143.846 405.037C143.78 380.884 143.839 356.738 143.728 332.585C143.72 331.187 142.61 329.788 142.018 328.39C138.104 325.644 134.182 322.899 130.267 320.154C126.538 316.461 122.801 312.761 119.072 309.069C118.095 307.966 116.896 306.997 116.186 305.746C111.775 297.969 107.476 290.133 103.132 282.318C95.6881 293.248 91.0632 305.45 87.5039 318.037C79.3419 346.911 75.8714 376.385 75.716 406.398C75.6642 416.773 73.1039 427.14 71.6757 437.507C71.2391 440.682 70.4843 443.827 70.3067 447.016C69.3448 464.746 62.4334 480.7 55.7513 496.75C53.487 502.197 51.7628 507.865 49.7575 513.415C48.1739 517.803 49.1137 521.636 52.1994 525.017C56.0177 529.198 59.799 533.424 63.6913 537.538C69.1006 543.265 74.6061 548.904 80.0671 554.58C82.1391 556.489 84.1814 558.435 86.2978 560.3C91.929 565.25 98.0783 569.261 105.789 569.883C114.632 570.6 123.09 568.972 131.318 565.62C136.824 563.378 142.559 561.684 148.19 559.745C149.174 559.996 150.151 560.241 151.135 560.492C152.045 559.982 152.911 559.145 153.865 559.02C160.77 558.146 166.327 554.728 171.329 550.147C172.025 549.511 172.935 549.119 173.749 548.616C175.332 543.724 176.916 538.833 178.507 533.934C178.388 526.727 179.158 519.667 182.125 512.993C183.095 510.203 183.872 507.325 185.071 504.646C189.57 494.582 192.678 484.319 190.458 473.123C187.949 464.687 185.433 456.258 182.925 447.823C181.718 446.535 180.512 445.24 179.299 443.953C178.44 443.457 177.574 442.961 176.139 442.132C177.545 449.902 172.498 450.82 167.407 451.656C166.475 451.811 165.505 451.759 164.551 451.804C164.543 451.33 164.536 450.857 164.529 450.383C165.942 450.316 167.355 450.265 168.761 450.176C174.148 449.843 176.206 447.046 174.903 441.91C174.57 440.637 174.341 439.313 174.067 438.003ZM214.907 233.524C215.358 230.335 215.809 227.138 216.261 223.949C216.505 222.72 216.749 221.484 216.993 220.256C216.956 218.954 216.912 217.651 216.875 216.349C216.956 215.372 217.038 214.395 217.127 213.419C217.082 209.208 217.038 204.998 216.993 200.787C217.001 200.314 217.016 199.84 217.023 199.359C217.016 198.619 217.016 197.879 217.008 197.139C217.001 196.858 216.986 196.577 216.979 196.295C216.305 195.193 215.41 194.172 215.003 192.98C214.063 190.205 213.353 187.349 212.553 184.53C212.553 184.345 212.546 184.16 212.553 183.975C212.479 183.427 212.257 182.443 212.361 182.406C216.794 180.874 221.256 179.431 225.718 177.974C228.922 178.44 232.133 178.906 235.337 179.372C241.812 179.113 248.006 183.131 250.433 190.006C252.083 194.675 252.779 199.685 253.896 204.546C254.792 215.572 252.32 225.947 247.673 235.862C247.051 237.194 245.742 238.208 244.75 239.37C241.723 242.803 238.697 246.229 235.67 249.663C231.016 253.585 221.152 254.317 215.217 251.173C214.833 250.433 214.44 249.693 214.056 248.953C214.551 248.205 215.047 247.465 215.536 246.718C215.521 245.97 215.506 245.223 215.491 244.483C215.277 243.558 215.069 242.633 214.855 241.701L214.796 241.597C214.759 240.339 214.729 239.081 214.692 237.823C214.766 236.38 214.84 234.952 214.907 233.524ZM123.519 434.71C122.512 433.874 121.513 433.038 120.507 432.202C120.648 431.869 120.788 431.536 120.929 431.203C122.105 431.358 123.282 431.521 124.459 431.676C127.433 431.943 129.527 433.415 131.022 436.316C127.959 437.381 125.687 436.301 123.519 434.71ZM104.568 451.782C104.568 448.733 104.568 445.692 104.568 442.643C105.086 442.658 105.596 442.672 106.114 442.687C105.87 446.239 105.619 449.791 105.374 453.343C104.501 454.949 104.02 457.065 102.688 458.064C98.7887 461.017 97.0201 465.086 95.5845 469.46C95.8435 471.865 95.9693 474.299 96.4059 476.675C96.8277 478.968 97.7527 481.166 98.1079 483.46C98.5519 486.339 96.4281 489.528 94.2896 489.151C91.0559 488.581 87.9109 487.53 84.729 486.679C87.0599 486.331 89.2059 486.701 91.3222 487.212C95.8731 488.307 97.7749 486.494 96.7315 481.795C96.2283 479.516 95.1183 477.355 94.7706 475.069C94.445 472.967 94.7705 470.762 94.8075 468.609C96.6871 465.227 98.5371 461.823 100.461 458.471C101.763 456.214 103.192 454.016 104.568 451.782ZM148.752 477.844C150.21 477.259 151.66 476.682 153.118 476.097C155.701 477.178 158.291 478.265 160.873 479.346C160.799 479.516 160.725 479.679 160.651 479.849C157.188 479.849 153.725 479.849 150.262 479.849C149.174 480.337 148.086 480.833 146.991 481.322C144.335 484.045 141.197 483.971 138.141 480.663C141.863 479.679 145.304 478.761 148.752 477.844ZM141.619 253.489C141.574 254.495 141.523 255.501 141.463 256.833C146.532 256.833 151.12 256.833 155.701 256.833C155.693 257.07 155.686 257.307 155.678 257.551C150.61 257.551 145.533 257.551 140.02 257.551C140.346 255.76 140.627 254.243 140.901 252.726C144.142 239.71 147.383 226.687 150.624 213.67C151.039 213.781 151.453 213.892 151.868 213.996C148.449 227.16 145.03 240.324 141.619 253.489ZM169.538 523.93C169.797 523.508 170.019 523.071 170.308 522.679C171.81 520.637 174.008 518.787 171.817 515.886C169.753 513.163 167.489 514.169 164.899 515.05C162.442 515.886 159.748 516.019 157.166 516.456C157.121 516.13 157.07 515.812 157.025 515.487C157.95 515.376 158.883 515.279 159.808 515.146C168.28 513.91 171.336 511.054 173.12 502.744C174.289 497.298 173.926 492.029 171.492 486.945C171.166 486.272 171.203 485.421 171.07 484.652C176.109 493.502 176.22 502.226 171.085 510.913C170.67 511.616 171.218 513.363 171.891 514.132C173.682 516.182 174.785 518.21 173.105 520.74C172.091 522.265 170.818 523.619 169.664 525.047C168.058 531.959 163.374 535.296 157.018 538.152C149.189 541.674 141.079 542.489 132.828 543.421C134.7 542.614 136.661 541.66 138.607 541.674C145.496 541.726 151.52 539.033 157.699 536.524C162.494 534.571 166.497 532.158 167.829 526.719C168.073 525.706 168.946 524.855 169.538 523.93ZM142.899 445.092C137.689 446.417 132.48 447.741 127.271 449.058C127.152 448.651 127.034 448.252 126.915 447.845C127.589 447.408 128.262 446.972 128.936 446.542C132.517 444.619 133.886 441.644 133.168 437.67C138.437 438.343 143.706 439.009 148.967 439.727C149.218 439.764 149.396 440.297 149.611 440.593C151.194 442.103 152.785 443.612 154.369 445.129C154.191 445.455 154.021 445.773 153.843 446.098C150.188 445.765 146.54 445.433 142.899 445.092ZM93.8012 491.415C94.4968 496.284 94.8815 501.249 95.9619 506.059C97.7157 513.829 99.9356 521.488 101.956 529.198C101.564 529.324 101.171 529.45 100.779 529.568C100.276 528.029 99.6544 526.52 99.277 524.958C97.9007 519.26 96.5909 513.548 95.2886 507.828C94.4968 504.357 93.5126 500.909 93.0908 497.394C92.854 495.374 93.557 493.243 93.8012 491.415ZM169.183 221.447C166.83 220.271 164.432 219.072 161.199 217.459C164.329 215.365 166.689 213.789 169.183 212.124C169.183 215.631 169.183 218.362 169.183 221.447ZM134.463 213.848C136.809 215.002 139.155 216.149 142.314 217.703C139.347 219.723 137.053 221.285 134.463 223.053C134.463 219.716 134.463 217.126 134.463 213.848ZM183.672 221.344C183.672 217.873 183.672 215.172 183.672 212.116C185.973 213.293 188.363 214.506 191.457 216.083C188.437 218.125 186.143 219.672 183.672 221.344ZM119.989 213.811C119.989 217.163 119.989 219.967 119.989 223.209C117.525 221.936 115.209 220.737 112.108 219.139C115.209 217.045 117.555 215.461 119.989 213.811ZM129.202 354.925C129.061 354.948 128.921 354.97 128.773 354.992C128.366 351.388 127.789 347.792 127.648 344.173C127.604 343.019 128.706 341.813 129.283 340.636C129.942 341.731 131.252 342.893 131.141 343.907C130.756 347.607 129.89 351.255 129.202 354.925ZM116.8 515.561C116.911 516.138 117.014 516.708 117.125 517.285C114.513 518.143 111.938 519.12 109.274 519.764C108.608 519.926 107.683 519.024 106.877 518.609C107.476 517.817 107.972 516.463 108.69 516.338C111.354 515.864 114.091 515.79 116.8 515.561ZM123.837 517.011C123.837 516.759 123.83 516.5 123.83 516.249C133.361 516.249 142.892 516.249 152.423 516.249C152.423 516.5 152.423 516.759 152.423 517.011C142.892 517.011 133.361 517.011 123.837 517.011ZM106.011 484.111C112.797 480.789 120.145 481.055 127.611 482.861C120.352 483.283 113.093 483.704 106.011 484.111ZM109.289 541.667C109.578 541.356 109.866 541.046 110.155 540.735C111.154 541.904 112.16 543.073 113.152 544.25C116.03 547.668 119.294 550.31 123.763 551.701C126.738 552.634 129.305 554.876 132.058 556.533C128.255 555.386 125.021 553.048 121.402 551.945C115.616 550.192 113.174 545.234 109.289 541.667ZM175.436 463.473C175.71 463.251 175.984 463.037 176.25 462.815C179.639 467.817 183.176 472.73 186.336 477.873C187.771 480.204 186.484 482.742 183.768 484.296C186.269 479.967 186.24 479.227 184.479 476.741C181.4 472.368 178.448 467.898 175.436 463.473ZM130.43 401.174C130.238 401.196 130.045 401.219 129.853 401.241C129.853 390.955 129.853 380.677 129.853 370.391C130.356 371.22 130.423 372.056 130.423 372.885C130.43 382.319 130.43 391.747 130.43 401.174ZM75.7826 486.738C77.9138 486.479 79.6009 486.279 81.2289 486.08C78.306 487.893 75.5236 489.617 72.3269 491.593C73.3925 488.455 74.3397 485.688 75.2794 482.927C75.4496 482.964 75.6198 483.001 75.7826 483.038C75.7826 484.111 75.7826 485.177 75.7826 486.738ZM107.543 456.229C107.38 455.888 107.217 455.548 107.047 455.208C112.7 452.721 118.346 450.228 124 447.741C124.14 448.052 124.281 448.355 124.422 448.666C118.798 451.182 113.167 453.706 107.543 456.229Z" fill="#244C43"/>
<path d="M148.183 559.774C142.551 561.713 136.817 563.408 131.311 565.65C123.082 569.002 114.617 570.63 105.782 569.912C98.0711 569.283 91.9218 565.28 86.2906 560.329C84.1742 558.465 82.1319 556.519 80.0599 554.609C80.0821 555.357 80.1043 556.104 80.1265 556.844C82.7682 559.012 85.4396 561.143 88.0517 563.349C98.9813 572.561 111.509 572.532 124.348 569.187C129.417 567.862 134.16 565.332 139.066 563.363C142.093 562.142 145.141 560.966 148.183 559.774Z" fill="white"/>
<path d="M103.132 282.341C107.469 290.155 111.775 297.991 116.186 305.768C116.896 307.019 118.095 307.988 119.072 309.091C119.242 308.943 119.405 308.788 119.567 308.632C112.93 300.389 108.112 291.095 103.791 281.504C103.569 281.786 103.347 282.067 103.132 282.341Z" fill="white"/>
<path d="M216.223 138.666C207.795 143.402 201.527 150.076 197.783 159.052C198.516 158.919 199.256 158.786 199.988 158.653C203.2 149.447 210.222 144.112 218.85 140.701C228.174 137.016 237.897 137.267 247.628 138.74C267.867 141.803 279.677 153.147 282.282 171.965C282.459 172.291 282.718 172.594 282.8 172.934C286.129 187.283 286.078 201.712 283.673 216.171C283.532 217.008 282.696 217.725 282.185 218.495C281.926 220.19 281.675 221.884 281.416 223.579C281.401 224.43 281.556 225.318 281.357 226.117C278.3 238.097 273.668 249.419 266.453 259.505C264.152 262.724 260.992 265.336 258.232 268.222C255.724 270.168 253.444 272.565 250.662 273.957C246.822 275.873 242.596 277.028 238.541 278.515C237.883 278.996 237.224 279.891 236.573 279.884C231.045 279.832 225.51 279.625 219.982 279.455C217.496 278.959 215.01 278.471 211.991 277.871C212.775 278.582 213.115 278.892 213.463 279.203C227.641 283.081 241.309 282.666 254.066 274.445C257.374 271.374 260.681 268.311 263.989 265.24C271.611 255.242 277.442 244.269 280.905 232.199C283.177 224.296 284.686 216.171 286.536 208.15C286.766 202.8 286.995 197.457 287.225 192.107C285.574 182.658 283.917 173.201 282.267 163.751C279.381 158.335 276.495 152.925 273.609 147.509C269.983 143.172 265.558 140.183 259.853 139.354C257.522 138.695 255.22 137.889 252.852 137.415C248.368 136.512 243.839 135.795 239.333 134.995C238.023 134.995 236.706 134.995 235.396 134.995C230.764 135.883 226.124 136.771 221.492 137.659C219.738 138.007 217.985 138.333 216.223 138.666Z" fill="#244C43"/>
<path d="M161.613 331.046C161.576 359.78 161.51 388.513 161.591 417.247C161.598 418.593 162.893 419.94 163.589 421.287C163.648 416.906 163.707 412.533 163.767 408.152C163.471 382.453 163.167 356.753 162.871 331.054C162.449 331.054 162.035 331.054 161.613 331.046Z" fill="#346B5E"/>
<path d="M325.77 387.995C322.699 398.643 319.288 409.21 316.646 419.962C313.087 434.429 310.112 449.044 306.923 463.606C306.523 465.442 306.353 467.329 306.079 469.193C306.405 469.245 306.73 469.289 307.063 469.341C307.826 465.301 308.395 461.224 309.372 457.243C314.7 435.598 320.131 413.968 325.526 392.339C325.822 391.14 326.125 389.949 326.429 388.757C326.207 388.498 325.985 388.247 325.77 387.995Z" fill="#356C5F"/>
<path d="M286.537 208.165C284.687 216.186 283.178 224.311 280.906 232.214C277.443 244.283 271.612 255.257 263.99 265.254C265.152 264.233 266.543 263.382 267.438 262.161C278.175 247.584 283.636 230.912 286.633 213.285C286.878 211.835 287.011 210.363 287.203 208.905C286.981 208.661 286.759 208.409 286.537 208.165Z" fill="white"/>
<path d="M207.389 287.424C205.428 291.132 203.467 294.839 201.506 298.546C201.617 298.739 201.609 298.931 201.491 299.116C203.681 300.374 205.872 301.639 208.928 303.393C208.928 297.303 208.928 291.953 208.928 286.595C208.417 286.869 207.899 287.15 207.389 287.424Z" fill="#FFFCFA"/>
<path d="M163.766 408.152C163.707 412.533 163.647 416.906 163.588 421.287C165.645 424.365 167.71 427.444 169.767 430.515C169.93 429.538 170.426 428.465 170.196 427.592C168.85 422.523 167.333 417.498 165.875 412.466C165.172 411.023 164.469 409.588 163.766 408.152Z" fill="white"/>
<path d="M190.45 473.145C192.67 484.341 189.562 494.604 185.063 504.668C183.865 507.354 183.088 510.233 182.118 513.022C182.362 513.289 182.607 513.555 182.843 513.822C185.374 507.147 188.016 500.509 190.406 493.79C192.907 486.768 193.151 479.59 191.153 472.375C190.924 472.627 190.687 472.886 190.45 473.145Z" fill="#356C5F"/>
<path d="M296.874 561.136C296.652 565.147 296.208 569.165 296.245 573.176C296.319 581.841 296.638 590.506 296.852 599.164C297.104 597.166 297.348 595.175 297.6 593.177C297.6 583.728 297.6 574.278 297.6 564.829C297.355 563.6 297.119 562.372 296.874 561.136Z" fill="#32695D"/>
<path d="M199.996 158.653C199.263 158.786 198.523 158.919 197.791 159.052C197.206 159.156 196.621 159.259 196.029 159.356C198.834 162.316 201.638 165.275 204.443 168.235C204.465 167.962 204.48 167.68 204.502 167.407C204.487 166.948 204.473 166.496 204.458 166.038C204.628 164.632 204.806 163.226 204.976 161.82C204.991 160.828 204.606 159.533 205.087 158.904C206.952 156.477 209.09 154.257 211.125 151.956C208.343 154.279 205.568 156.603 202.711 158.993C202.941 158.29 203.185 157.52 203.429 156.758C202.711 157.18 201.986 157.602 201.268 158.031C200.847 158.246 200.417 158.453 199.996 158.653Z" fill="#3A7164"/>
<path d="M254.066 274.46C241.309 282.681 227.634 283.095 213.464 279.218C213.101 279.27 212.738 279.322 212.376 279.381C215.417 280.261 218.407 281.608 221.5 281.934C231.268 282.97 241.028 283.14 249.915 277.901C251.447 276.998 252.69 275.622 254.066 274.46Z" fill="white"/>
<path d="M212.368 279.381C212.73 279.329 213.093 279.277 213.456 279.218C213.108 278.907 212.767 278.596 211.983 277.886C215.01 278.485 217.489 278.981 219.975 279.469C219.967 279.188 219.96 278.914 219.953 278.633C217.637 277.967 215.32 277.301 213.004 276.635C213.071 276.554 213.145 276.473 213.211 276.391C217 276.621 220.796 276.85 224.585 277.079C220.33 276.043 216.075 275 211.82 273.964C210.34 278.448 208.868 282.94 207.388 287.424C207.898 287.15 208.416 286.877 208.927 286.595C210.074 284.191 211.221 281.786 212.368 279.381Z" fill="white"/>
<path d="M325.771 387.995C325.993 388.247 326.207 388.498 326.429 388.75C329.885 378.642 333.348 368.526 336.804 358.418C336.574 358.152 336.338 357.893 336.108 357.626C332.66 367.749 329.211 377.872 325.771 387.995Z" fill="white"/>
<path d="M282.267 163.766C283.918 173.215 285.575 182.672 287.225 192.122C287.477 191.597 287.728 191.071 287.973 190.546C286.3 181.363 284.635 172.18 282.963 162.996C282.741 163.255 282.504 163.507 282.267 163.766Z" fill="#244C43"/>
<path d="M300.826 503.21C300.049 511.306 299.272 519.409 298.495 527.504C298.872 527.541 299.249 527.578 299.627 527.615C300.441 519.49 301.262 511.365 302.076 503.24C301.662 503.233 301.247 503.218 300.826 503.21Z" fill="#244C43"/>
<path d="M174.067 438.003C174.341 439.313 174.578 440.638 174.903 441.932C176.206 447.068 174.149 449.865 168.761 450.198C167.348 450.287 165.942 450.339 164.529 450.405C164.536 450.879 164.544 451.352 164.551 451.826C165.506 451.782 166.468 451.826 167.407 451.678C172.498 450.842 177.545 449.924 176.139 442.154C177.575 442.983 178.433 443.472 179.299 443.975C177.552 441.992 175.806 439.994 174.067 438.003Z" fill="white"/>
<path d="M190.45 473.145C190.687 472.886 190.923 472.627 191.16 472.368C189.066 464.887 187.009 457.398 184.819 449.946C184.582 449.132 183.575 448.548 182.917 447.852C185.433 456.281 187.941 464.716 190.45 473.145Z" fill="white"/>
<path d="M296.874 561.136C297.111 562.364 297.355 563.6 297.592 564.829C297.999 554.691 298.406 544.56 298.82 534.423C298.487 534.401 298.154 534.386 297.821 534.364C297.511 543.295 297.192 552.219 296.874 561.136Z" fill="white"/>
<path d="M161.613 331.046C162.035 331.046 162.449 331.046 162.871 331.046C169.176 327.494 175.503 323.979 181.77 320.361C182.91 319.702 183.805 318.622 184.812 317.734C183.916 318.089 182.962 318.348 182.133 318.822C176.228 322.13 170.33 325.467 164.469 328.849C163.433 329.441 162.56 330.306 161.613 331.046Z" fill="white"/>
<path d="M165.875 412.459C167.333 417.498 168.85 422.515 170.197 427.584C170.426 428.457 169.931 429.53 169.768 430.507C170.715 432.039 171.655 433.571 172.602 435.095C172.757 434.518 173.186 433.844 173.031 433.371C170.693 426.393 168.273 419.43 165.875 412.459Z" fill="white"/>
<path d="M173.749 548.638C172.935 549.141 172.025 549.533 171.329 550.169C166.327 554.75 160.77 558.161 153.866 559.042C152.911 559.16 152.038 560.004 151.135 560.514C160.296 559.656 168.088 556.186 173.749 548.638Z" fill="white"/>
<path d="M182.851 513.822C182.606 513.555 182.362 513.289 182.125 513.022C179.151 519.697 178.389 526.757 178.507 533.964C179.01 532.795 179.743 531.67 179.972 530.456C181.008 524.921 181.903 519.364 182.851 513.822Z" fill="#244C43"/>
<path d="M311.274 221.81C315.736 214.655 318.851 207.122 318.045 198.442C317.956 206.826 314.234 214.048 310.748 221.344C310.926 221.499 311.096 221.655 311.274 221.81Z" fill="#244C43"/>
<path d="M239.333 135.003C243.839 135.802 248.368 136.52 252.852 137.423C255.22 137.904 257.522 138.703 259.853 139.361C258.831 138.636 257.884 137.43 256.782 137.26C250.988 136.364 245.149 135.728 239.333 135.003Z" fill="#356C5F"/>
<path d="M277.487 401.263C275.881 403.601 274.468 405.666 273.047 407.73C273.114 407.849 273.173 407.967 273.239 408.086C274.542 407.028 275.837 405.977 277.376 404.726C278.138 405.999 278.797 407.101 280.018 409.129C279.559 406.184 279.248 404.186 278.871 401.803C278.419 401.626 277.509 401.27 277.487 401.263Z" fill="white"/>
<path d="M297.592 593.177C297.348 595.175 297.096 597.166 296.844 599.164C296.844 604.129 296.844 609.094 296.844 614.052C297.096 614.045 297.34 614.03 297.592 614.023C297.592 607.081 297.592 600.126 297.592 593.177Z" fill="white"/>
<path d="M216.224 138.666C217.977 138.333 219.738 138.007 221.492 137.667C226.125 136.779 230.764 135.891 235.396 135.003C228.67 134.492 222.225 135.395 216.224 138.666Z" fill="white"/>
<path d="M282.267 163.766C282.504 163.514 282.733 163.255 282.97 163.004C280.846 158.675 278.818 154.287 276.539 150.039C275.969 148.981 274.608 148.352 273.602 147.523C276.495 152.933 279.381 158.349 282.267 163.766Z" fill="#244C43"/>
<path d="M201.49 299.116C201.609 298.931 201.609 298.739 201.505 298.546C197.909 302.993 194.312 307.433 190.709 311.881C194.305 307.626 197.901 303.371 201.49 299.116Z" fill="white"/>
<path d="M336.1 357.619C336.329 357.885 336.566 358.144 336.796 358.411C337.077 357.279 337.351 356.139 337.632 355.007C337.343 354.792 337.062 354.578 336.773 354.37C333.769 357.116 330.765 359.868 327.76 362.614C327.975 362.865 328.182 363.117 328.397 363.369C330.121 361.792 331.793 360.157 333.599 358.684C334.272 358.129 335.264 357.959 336.1 357.619Z" fill="#244C43"/>
<path d="M287.979 190.546C287.728 191.071 287.476 191.597 287.232 192.122C287.003 197.472 286.773 202.815 286.544 208.165C286.766 208.416 286.981 208.661 287.203 208.912C287.454 202.793 287.72 196.666 287.979 190.546Z" fill="white"/>
<path d="M310.749 221.344C310.49 221.603 310.216 221.855 309.965 222.121C305.236 227.182 304.304 227.064 301.447 221.048C301.151 221.211 300.855 221.374 300.559 221.529C301.544 223.076 302.21 225.251 303.623 225.984C304.814 226.605 307.064 225.91 308.499 225.147C309.683 224.518 310.364 222.95 311.274 221.795C311.097 221.655 310.927 221.499 310.749 221.344Z" fill="white"/>
<path d="M211.821 273.964C216.076 275 220.331 276.043 224.586 277.079C229.211 276.828 233.828 276.576 238.453 276.325C243.996 273.298 249.79 270.649 254.984 267.112C258.336 264.825 260.815 261.244 263.679 258.247C264.426 257.07 265.181 255.894 265.929 254.717C266.165 254.155 266.343 253.548 266.646 253.03C274.475 239.851 278.812 225.51 280.847 210.407C281.32 206.899 281.712 203.377 282.142 199.862C282.134 198.271 282.134 196.688 282.127 195.097C281.875 193.158 281.749 191.19 281.342 189.281C279.552 180.911 278.397 172.32 275.674 164.269C270.983 150.409 259.587 144.919 245.964 143.024C241.206 142.78 236.448 142.528 231.69 142.284C222.203 142.935 213.76 145.984 206.967 152.925C206.397 153.51 205.561 153.828 204.843 154.272C204.37 155.108 203.896 155.944 203.422 156.781C203.178 157.543 202.934 158.312 202.705 159.015C205.561 156.625 208.343 154.302 211.118 151.978L211.066 152.015C215.025 147.605 220.361 146.295 225.888 145.4C235.042 143.483 243.981 144.859 252.898 147.05C261.097 149.063 267.571 153.465 271.663 160.85C276.111 168.887 279.078 177.448 279.226 186.779C279.455 193.506 279.796 200.232 279.84 206.966C279.848 208.831 278.952 210.703 278.471 212.575C277.45 217.407 276.436 222.232 275.415 227.064C275.341 228.144 275.452 229.284 275.164 230.298C272.329 240.213 268.097 249.485 261.888 257.758C252.542 270.205 240.703 277.486 224.482 275.488C220.25 274.822 216.017 274.156 211.792 273.49C211.806 273.646 211.814 273.801 211.821 273.964Z" fill="#244C43"/>
<path d="M213.945 264.359C213.811 264.374 213.678 264.389 213.545 264.396C213.723 264.921 213.9 265.439 214.085 265.965C214.359 265.987 214.64 266.009 214.914 266.024C227.605 269.569 239.4 268.54 249.604 259.29C250.248 258.817 250.884 258.343 251.528 257.869C255.827 251.143 260.119 244.424 264.419 237.698C264.655 237.298 264.892 236.891 265.129 236.491C265.381 235.078 265.588 233.65 265.884 232.251C267.623 224.03 269.384 215.809 271.138 207.588C271.13 203.607 271.116 199.618 271.108 195.637C270.339 186.165 268.489 176.997 263.671 168.635C263.279 167.962 263.309 167.044 263.138 166.238C261.104 164.58 259.061 162.922 257.026 161.265C246.674 156.226 235.796 154.546 224.408 156.248C219.465 158.638 214.514 161.021 209.571 163.411C208.38 164.728 207.181 166.038 205.99 167.355C206.123 167.873 206.256 168.398 206.449 169.153C215.387 158.608 226.702 156.44 239.355 158.556C244.151 159.866 249.02 160.961 253.689 162.612C255.302 163.181 256.419 165.128 257.766 166.445C262.251 170.27 264.152 175.554 265.899 180.919C269.221 186.483 269.643 192.522 268.829 198.76C268.829 201.631 268.829 204.495 268.829 207.366C269.021 208.416 269.554 209.534 269.347 210.496C267.578 218.495 266.224 226.635 263.664 234.382C260.497 244.002 255.494 252.749 247.392 259.312C239.873 265.647 231.371 268.185 221.64 265.987C219.065 265.447 216.505 264.899 213.945 264.359Z" fill="#244C43"/>
<path d="M213.944 264.359C216.505 264.899 219.065 265.439 221.625 265.987C222.202 265.802 222.817 265.38 223.357 265.462C231.926 266.727 239.348 263.863 246.289 259.194C257.84 248.62 263.641 235.034 266.675 220.042C267.526 215.846 268.111 211.591 268.821 207.366C268.821 204.495 268.821 201.631 268.821 198.76C267.845 192.81 266.868 186.868 265.891 180.919C264.145 175.554 262.243 170.27 257.759 166.445C252.172 161.872 245.408 160.429 238.541 159.26C236.95 159.163 235.367 159.015 233.776 158.986C225.481 158.816 217.615 160.125 211.169 165.927C209.726 167.222 208.55 168.82 207.802 169.664C212.087 167.422 216.771 164.965 221.455 162.508C232.096 160.125 242.367 160.939 252.127 166.09C252.704 166.563 253.289 167.029 253.866 167.503C254.961 168.213 256.515 168.672 257.063 169.678C259.69 174.518 262.05 179.513 264.5 184.448C266.994 193.054 268.192 201.764 266.735 210.703C266.224 213.848 265.713 216.993 265.195 220.138C263.419 230.276 259.882 239.747 254.125 248.287C250.329 253.918 245.815 258.891 239.326 261.592C232.118 265.706 224.482 264.818 216.867 263.338C216.031 263.175 215.461 261.651 214.766 260.763L214.699 260.689C214.447 261.91 214.196 263.138 213.944 264.359Z" fill="#244C43"/>
<path d="M214.818 260.43L214.707 260.689L214.774 260.763C216.498 261.022 218.229 261.281 219.953 261.54C223.69 261.525 227.435 261.51 231.172 261.503C235.345 259.534 239.519 257.566 243.685 255.59L243.64 255.627C248.102 249.382 252.557 243.136 257.019 236.883C258.736 231.533 260.453 226.176 262.162 220.826C262.391 211.702 262.613 202.578 262.843 193.461C261.94 190.154 261.185 186.794 260.09 183.553C257.892 177.049 254.385 171.491 247.651 168.842C239.829 165.764 231.697 164.469 223.417 166.348C217.763 167.629 212.287 169.604 209.645 175.576C217.112 168.435 226.265 167.007 235.944 168.376C242.412 169.294 249.212 170.093 253.29 176.434L253.26 176.405C257.618 180.534 259.283 185.862 259.964 191.611C259.949 192.692 259.935 193.765 259.92 194.845C260.408 195.629 261.215 196.377 261.333 197.213C262.473 205.153 262.236 213.041 260.142 220.826C257.619 227.819 255.517 235.011 252.431 241.745C249.952 247.162 246.304 252.038 240.666 254.887L240.703 254.858C239.681 255.664 238.756 256.663 237.617 257.255C231.209 260.578 224.43 260.282 217.6 259.031C216.217 258.772 214.885 258.217 214.818 260.43Z" fill="#244C43"/>
<path d="M211.074 178.654C212.702 181.54 214.204 178.854 215.758 178.543C216.683 177.796 217.489 176.686 218.54 176.353C227.294 173.585 235.915 174.163 244.299 177.877C244.98 178.181 245.387 179.091 245.927 179.72C248.147 182.332 250.367 184.937 252.587 187.549C255.043 192.292 256.797 197.169 255.502 202.637C255.502 206.381 255.502 210.133 255.502 213.877C255.036 217.696 254.57 221.507 254.096 225.318C251.802 234.109 248.154 242.189 241.516 248.605C237.639 252.357 233.192 255.057 227.494 254.835C226.177 254.835 224.867 254.843 223.55 254.843C220.901 254.843 218.244 254.843 214.648 254.843C218.148 255.716 220.827 256.382 223.498 257.048C229.854 257.744 235.478 255.982 240.414 251.95C253.793 238.423 258.284 221.625 258.358 203.2C256.457 196.088 254.562 188.977 252.661 181.866C252.143 181.155 251.617 180.445 251.099 179.735C247.37 177.715 243.722 175.495 239.866 173.748C237.683 172.764 235.145 172.564 232.762 172.009C224.652 171.358 217.193 172.816 211.074 178.654Z" fill="white"/>
<path d="M211.073 178.654C217.193 172.823 224.652 171.358 232.762 172.002C238.808 171.151 244.017 173.393 248.894 176.56C249.893 177.211 250.381 178.654 251.099 179.727C251.617 180.438 252.142 181.148 252.66 181.859C253.452 182.717 254.71 183.457 254.961 184.456C256.464 190.398 257.736 196.399 259.083 202.386C259.786 219.131 256.02 234.56 245.453 247.902C244.15 249.545 242.108 250.61 240.406 251.942C235.47 255.982 229.854 257.736 223.497 257.041C220.434 256.626 217.37 256.212 214.314 255.79C216.623 256.685 218.858 258.01 221.255 258.402C228.107 259.534 234.545 257.744 240.724 254.843L240.687 254.873C242.115 253.37 243.544 251.868 244.964 250.359C252.83 242.012 256.575 231.674 259.261 220.819C259.483 212.153 259.705 203.488 259.934 194.823C259.949 193.743 259.964 192.67 259.979 191.589C257.744 186.52 255.509 181.452 253.274 176.383L253.304 176.412C252.852 176.235 252.32 176.161 251.965 175.872C243.477 168.931 233.524 167.747 223.379 169.863C218.554 170.87 214.218 174.215 209.652 176.494C209.63 176.723 209.623 176.945 209.623 177.174C210.104 177.678 210.585 178.166 211.073 178.654Z" fill="#244C43"/>
<path d="M217.001 220.256C216.757 221.485 216.512 222.72 216.268 223.949C216.342 225.451 216.261 226.975 216.52 228.448C216.816 230.091 217.415 231.682 217.889 233.295C222.321 234.212 226.021 233.102 228.774 229.358C231.904 222.787 233.103 216.068 230.291 209.053C226.924 205.323 222.75 205.56 218.407 206.633C217.497 209.068 219.354 208.098 220.353 208.239C222.765 208.587 225.178 208.971 227.59 209.334C227.516 209.697 227.442 210.067 227.368 210.429C224.238 209.356 221.071 207.817 217.445 211.369C221.84 211.384 225.858 210.881 227.138 215.313C228.5 220.027 227.96 224.637 224.519 228.455C222.832 230.327 221.204 230.475 218.873 229.439C224.356 228.344 226.569 225.584 226.665 219.731C226.768 213.315 224.016 211.362 217.77 213.419C218.303 213.915 218.836 214.832 219.376 214.832C221.907 214.825 224.267 215.21 224.919 218.029C225.577 220.87 225.437 223.734 222.639 226.627C223.32 224.274 224.193 222.654 224.134 221.063C224.075 219.509 223.468 217.392 222.351 216.645C221.389 216.009 219.376 216.956 217.822 217.207C218.399 217.511 218.954 218.036 219.554 218.081C221.803 218.266 222.395 219.627 222.343 221.581C222.292 223.586 221.803 225.229 219.931 225.665C220.338 223.705 220.693 221.988 221.048 220.271C219.679 220.264 218.34 220.264 217.001 220.256Z" fill="#24564B"/>
<path d="M235.678 249.656C238.704 246.222 241.731 242.796 244.757 239.362C250.699 228.522 253.511 216.926 253.2 204.569C252.956 203.629 252.594 202.696 252.483 201.742C251.158 190.916 247.332 182.029 235.345 179.372C232.141 178.906 228.929 178.44 225.725 177.966C221.337 179.964 216.949 181.969 212.561 183.967C212.561 184.152 212.561 184.337 212.561 184.522C213.796 184.53 215.04 184.545 216.275 184.552L216.253 184.567C221.662 180.046 227.789 181.126 233.931 182.317C239.052 183.442 243.625 185.455 246.6 190.08C247.488 191.811 248.724 193.447 249.219 195.289C253.363 210.57 251.454 225.177 243.351 238.719C241.45 241.893 237.935 244.098 235.16 246.755C233.776 247.495 232.392 248.235 231.016 248.967C229.824 249.478 228.589 250.484 227.434 250.403C222.965 250.1 218.51 249.456 214.055 248.938C214.44 249.678 214.832 250.418 215.217 251.158C222.158 252.283 229.018 252.297 235.678 249.656Z" fill="white"/>
<path d="M215.491 244.468C215.505 245.216 215.52 245.963 215.535 246.703C216.046 247.177 216.549 247.643 217.059 248.116C224.777 248.819 231.918 247.621 237.705 241.908C240.184 237.083 242.655 232.251 245.134 227.427C246.126 224.274 247.117 221.115 248.102 217.962C247.894 213.715 247.687 209.475 247.48 205.227C245.408 191.981 241.649 187.727 230.416 185.906C225.214 185.558 220.071 185.447 216.06 189.85C216.874 189.806 217.696 189.769 218.51 189.724L218.465 189.747C224.526 187.075 230.46 187.268 236.269 190.487L236.232 190.464C238.275 192.048 241.183 193.217 242.174 195.304C243.972 199.085 244.624 203.407 245.756 207.499C246.252 215.18 246.141 222.765 242.167 229.728L242.197 229.669C240.805 235.47 237.564 239.984 232.636 243.314C227.893 247.058 222.587 246.681 217.17 245.401C216.608 245.097 216.053 244.787 215.491 244.468Z" fill="#24564B"/>
<path d="M215.491 244.468C216.046 244.779 216.608 245.09 217.163 245.408C218.214 245.253 219.317 244.838 220.316 245.001C224.77 245.719 228.788 244.668 232.57 242.367C235.774 238.134 238.985 233.901 242.19 229.669L242.16 229.728C243.137 222.321 244.121 214.913 245.098 207.506C243.788 200.965 242.397 194.475 236.225 190.464L236.262 190.487C230.328 190.242 224.393 189.991 218.458 189.747L218.503 189.724C217.844 190.59 217.186 191.456 216.52 192.314C222.291 190.864 227.752 190.723 233.169 192.529C236.395 193.602 239.341 195.126 239.977 199.004C240.702 201.557 241.427 204.11 242.153 206.663C242.611 207.632 243.388 208.564 243.477 209.571C244.372 219.331 241.849 228.255 236.432 236.343C235.604 237.579 234.102 238.363 232.91 239.355C227.479 244.713 221.344 244.572 214.847 241.693C215.069 242.618 215.284 243.543 215.491 244.468Z" fill="white"/>
<path d="M242.16 206.67C241.435 204.117 240.71 201.564 239.984 199.004C235.367 192.81 228.84 192.055 221.885 192.81C219.731 193.04 217.371 193.387 216.986 196.296C216.993 196.577 217.008 196.858 217.015 197.139C217.289 197.124 217.563 197.117 217.829 197.102C221.233 193.58 230.75 194.024 234.79 197.894L234.753 197.864C236.218 199.699 238.231 201.32 239.052 203.407C241.546 209.748 241.657 216.445 239.674 222.876C238.379 227.064 235.944 230.904 234.02 234.893L234.042 234.856C232.081 240.184 224.881 242.737 217.992 241.264C216.993 241.05 215.861 241.457 214.796 241.575L214.855 241.679C221.352 244.565 227.486 244.705 232.918 239.348C234.768 236.469 236.817 233.702 238.423 230.697C242.456 223.164 242.648 214.95 242.16 206.67Z" fill="#244C43"/>
<path d="M209.623 177.189C209.623 176.96 209.63 176.73 209.652 176.508C209.652 176.19 209.652 175.88 209.652 175.561C212.294 169.59 217.777 167.614 223.424 166.334C231.704 164.454 239.836 165.757 247.658 168.827C254.392 171.477 257.899 177.026 260.097 183.538C261.192 186.779 261.94 190.139 262.85 193.447C263.087 193.447 263.316 193.447 263.553 193.439C262.768 189.969 262.287 186.395 261.14 183.05C259.157 177.256 256.175 171.972 250.485 169.005C242.138 164.654 233.095 163.204 224.023 165.261C218.628 166.482 213.663 169.59 209.12 171.573C211.636 167.488 216.631 165.438 221.522 163.248C221.5 162.996 221.485 162.745 221.463 162.493C216.778 164.95 212.094 167.407 207.81 169.649C208.565 168.805 209.741 167.207 211.177 165.912C217.615 160.11 225.488 158.808 233.783 158.971C235.374 159.001 236.958 159.149 238.549 159.245C238.815 159.015 239.082 158.779 239.348 158.549C226.694 156.433 215.38 158.601 206.441 169.146C206.249 168.391 206.115 167.866 205.982 167.348C205.486 167.362 204.998 167.385 204.502 167.399C204.48 167.673 204.458 167.954 204.443 168.228C206.167 171.225 207.891 174.207 209.623 177.189Z" fill="white"/>
<path d="M128.943 407.93C134.049 408.611 139.162 409.292 144.734 410.032C144.904 408.522 145.2 407.131 145.2 405.732C145.23 381.557 145.215 357.389 145.237 333.214C145.237 330.913 145.304 328.671 142.447 327.916C142.299 328.079 142.159 328.249 142.011 328.412C142.603 329.81 143.713 331.209 143.72 332.608C143.831 356.761 143.772 380.906 143.839 405.059C143.846 408.063 142.914 408.959 139.872 408.285C136.291 407.486 132.591 407.198 128.943 406.694C128.943 407.109 128.943 407.516 128.943 407.93Z" fill="white"/>
<path d="M217.83 197.102C217.556 197.117 217.282 197.124 217.016 197.139C217.023 197.879 217.023 198.619 217.03 199.359C220.02 199.122 223.009 198.885 225.992 198.649C233.214 198.619 236.951 202.341 237.787 210.4C237.558 214.884 237.328 219.368 237.091 223.845C236.625 225.229 236.255 226.657 235.663 227.982C233.599 232.606 231.282 237.024 225.903 238.622C222.477 238.378 219.043 238.141 215.617 237.897C217.963 241.338 221.604 241.375 224.741 240.273C228.064 239.111 230.957 236.721 234.035 234.863L234.013 234.9C234.709 233.354 235.434 231.815 236.1 230.253C240.784 219.25 242.145 208.372 234.753 197.864L234.79 197.894C229.225 195.896 223.624 194.49 217.83 197.102Z" fill="white"/>
<path d="M133.161 437.677C133.879 441.651 132.51 444.626 128.928 446.55C133.583 446.069 138.237 445.58 142.892 445.099C146.54 445.44 150.188 445.773 153.836 446.113C154.014 445.788 154.184 445.469 154.361 445.144C152.778 443.634 151.187 442.125 149.603 440.615C144.12 439.624 138.644 438.654 133.161 437.677Z" fill="#244C43"/>
<path d="M225.998 198.649C223.009 198.885 220.019 199.122 217.037 199.359C217.03 199.833 217.015 200.306 217.007 200.787C219.464 201.039 221.921 201.401 224.385 201.52C230.527 201.816 233.561 204.317 234.856 210.348C236.632 217.259 235.403 223.778 232.125 229.972C228.744 236.373 224.052 238.289 217.037 236.306C216.578 236.129 216.112 235.951 215.653 235.774C218.406 239.607 222.232 238.408 225.902 237.957C231.94 234.797 234.493 229.195 236.291 223.075C236.565 219.561 236.846 216.046 237.12 212.531C236.913 205.101 233.442 200.277 225.998 198.649Z" fill="white"/>
<path d="M234.856 210.34C233.561 204.317 230.528 201.808 224.386 201.512C221.922 201.394 219.465 201.031 217.008 200.78C217.052 204.99 217.097 209.201 217.141 213.411C217.348 213.411 217.563 213.411 217.77 213.419C224.016 211.354 226.768 213.308 226.665 219.731C226.576 225.584 224.364 228.344 218.873 229.439C221.204 230.483 222.832 230.327 224.519 228.455C227.967 224.637 228.5 220.027 227.138 215.313C225.858 210.881 221.84 211.384 217.445 211.369C221.071 207.817 224.238 209.356 227.368 210.429C227.442 210.067 227.516 209.697 227.59 209.334C225.177 208.964 222.765 208.579 220.353 208.239C219.346 208.098 217.489 209.068 218.407 206.633C218.214 206.152 218.014 205.671 217.815 205.19C219.08 204.272 220.242 202.763 221.618 202.526C228.226 201.409 232.244 204.309 234.22 211.199C234.427 210.91 234.642 210.629 234.856 210.34Z" fill="white"/>
<path d="M216.986 196.296C217.371 193.395 219.731 193.047 221.884 192.81C228.848 192.055 235.367 192.81 239.984 199.004C239.355 195.126 236.41 193.602 233.177 192.529C227.76 190.731 222.299 190.864 216.527 192.314C217.186 191.449 217.844 190.583 218.51 189.724C217.696 189.769 216.875 189.806 216.061 189.85C220.071 185.447 225.214 185.558 230.416 185.906C230.668 185.677 230.92 185.44 231.171 185.211C225.673 183.427 220.545 185.329 214.862 187.297C215.543 185.98 215.905 185.27 216.275 184.559C215.04 184.552 213.796 184.537 212.561 184.53C213.36 187.349 214.063 190.205 215.01 192.98C215.417 194.172 216.312 195.193 216.986 196.296Z" fill="#244C43"/>
<path d="M169.657 525.04C170.811 523.612 172.084 522.257 173.098 520.733C174.777 518.21 173.675 516.175 171.884 514.125C171.211 513.363 170.663 511.609 171.077 510.906C176.213 502.211 176.102 493.487 171.063 484.644C171.196 485.414 171.159 486.265 171.484 486.938C173.919 492.022 174.282 497.29 173.112 502.737C171.329 511.047 168.273 513.903 159.8 515.139C158.875 515.272 157.943 515.368 157.018 515.479C157.062 515.805 157.114 516.123 157.158 516.449C159.748 516.005 162.442 515.879 164.891 515.043C167.481 514.162 169.745 513.148 171.81 515.879C174 518.78 171.803 520.629 170.3 522.672C170.012 523.064 169.782 523.508 169.531 523.922C169.575 524.3 169.62 524.67 169.657 525.04Z" fill="white"/>
<path d="M169.656 525.04C169.619 524.67 169.575 524.3 169.538 523.922C168.953 524.847 168.073 525.698 167.821 526.712C166.482 532.151 162.486 534.563 157.691 536.517C151.519 539.025 145.488 541.719 138.599 541.667C136.646 541.652 134.692 542.614 132.82 543.413C141.071 542.481 149.181 541.667 157.01 538.145C163.374 535.289 168.05 531.951 169.656 525.04Z" fill="white"/>
<path d="M141.618 253.489C145.037 240.324 148.448 227.16 151.867 213.996C151.453 213.885 151.038 213.774 150.624 213.67C147.383 226.687 144.142 239.71 140.901 252.727C141.137 252.986 141.382 253.237 141.618 253.489Z" fill="#244C43"/>
<path d="M93.8009 491.415C93.5567 493.235 92.8537 495.374 93.0979 497.394C93.5197 500.909 94.5039 504.357 95.2956 507.828C96.598 513.54 97.9078 519.261 99.2842 524.958C99.6616 526.527 100.276 528.037 100.786 529.568C101.179 529.443 101.571 529.317 101.963 529.198C99.9427 521.488 97.7228 513.829 95.969 506.059C94.8813 501.257 94.4965 496.292 93.8009 491.415Z" fill="white"/>
<path d="M227.493 254.836C233.191 255.058 237.639 252.357 241.516 248.605C248.154 242.189 251.802 234.101 254.096 225.318C253.852 225.074 253.615 224.837 253.371 224.593C250.3 231.104 247.636 237.853 244.032 244.061C240.465 250.196 234.027 252.793 227.493 254.836Z" fill="#244C43"/>
<path d="M169.183 221.448C169.183 218.362 169.183 215.631 169.183 212.124C166.689 213.789 164.328 215.365 161.198 217.459C164.439 219.08 166.829 220.271 169.183 221.448Z" fill="#FFFCFA"/>
<path d="M134.463 213.848C134.463 217.119 134.463 219.716 134.463 223.053C137.053 221.292 139.347 219.723 142.314 217.703C139.155 216.157 136.809 215.002 134.463 213.848Z" fill="white"/>
<path d="M183.671 221.344C186.143 219.672 188.43 218.125 191.456 216.083C188.363 214.506 185.98 213.286 183.671 212.116C183.671 215.172 183.671 217.866 183.671 221.344Z" fill="#FFFCFA"/>
<path d="M94.8005 468.624C94.7635 470.784 94.4379 472.982 94.7635 475.084C95.1187 477.37 96.2212 479.531 96.7244 481.81C97.7678 486.501 95.8661 488.314 91.3152 487.227C89.1988 486.716 87.0529 486.353 84.722 486.694C87.9039 487.545 91.0488 488.596 94.2825 489.165C96.4211 489.543 98.5448 486.353 98.1008 483.475C97.7456 481.181 96.8133 478.976 96.3989 476.689C95.9623 474.314 95.8365 471.879 95.5775 469.474C95.3185 469.186 95.0595 468.905 94.8005 468.624Z" fill="white"/>
<path d="M119.989 213.811C117.555 215.461 115.209 217.045 112.108 219.139C115.209 220.737 117.518 221.936 119.989 223.209C119.989 219.968 119.989 217.163 119.989 213.811Z" fill="#FFFCFA"/>
<path d="M128.942 407.93C128.942 407.516 128.942 407.101 128.942 406.687C127.958 406.606 126.893 406.754 126.012 406.413C120.462 404.297 117.088 407.205 114.335 411.416C111.279 416.092 109.932 421.346 109.903 427C110.458 424.913 110.909 422.789 111.605 420.747C112.478 418.194 113.277 415.559 114.587 413.229C117.88 407.39 119.863 406.598 126.375 407.723C127.211 407.871 128.084 407.864 128.942 407.93Z" fill="white"/>
<path d="M129.202 354.925C129.89 351.255 130.755 347.607 131.148 343.907C131.259 342.893 129.949 341.732 129.29 340.636C128.713 341.82 127.603 343.019 127.655 344.173C127.796 347.785 128.373 351.388 128.78 354.992C128.913 354.97 129.061 354.948 129.202 354.925Z" fill="#3D7C6E"/>
<path d="M240.717 254.85C234.538 257.751 228.1 259.542 221.248 258.41C218.858 258.01 216.616 256.693 214.307 255.798C214.011 255.731 213.722 255.657 213.426 255.59C213.892 257.203 214.351 258.817 214.81 260.43C214.877 258.217 216.209 258.772 217.607 259.031C224.43 260.282 231.215 260.585 237.624 257.255C238.763 256.663 239.696 255.664 240.717 254.85Z" fill="#33665B"/>
<path d="M235.345 179.372C247.332 182.029 251.158 190.908 252.483 201.742C252.601 202.696 252.956 203.629 253.2 204.569C253.437 204.561 253.667 204.546 253.903 204.539C252.779 199.685 252.083 194.675 250.44 189.998C248.013 183.124 241.812 179.113 235.345 179.372Z" fill="#244C43"/>
<path d="M153.118 476.097C151.661 476.682 150.21 477.259 148.752 477.844C146.384 478.961 144.017 480.071 141.649 481.188C141.671 481.425 141.693 481.662 141.715 481.899C143.476 481.706 145.23 481.521 146.991 481.329C148.079 480.841 149.167 480.345 150.262 479.857C152.142 479.464 154.021 479.065 156.115 478.628C154.916 477.614 154.014 476.86 153.118 476.097Z" fill="#244C43"/>
<path d="M245.927 179.713C245.394 179.084 244.98 178.173 244.299 177.87C235.915 174.155 227.294 173.578 218.54 176.346C217.489 176.679 216.675 177.789 215.758 178.536C225.999 174.104 236.026 175.243 245.927 179.713Z" fill="white"/>
<path d="M253.903 204.539C253.666 204.546 253.437 204.554 253.2 204.569C253.504 216.926 250.692 228.522 244.757 239.362C245.749 238.201 247.058 237.187 247.68 235.855C252.32 225.947 254.791 215.565 253.903 204.539Z" fill="#244C43"/>
<path d="M116.799 515.561C114.091 515.79 111.353 515.864 108.689 516.345C107.971 516.471 107.476 517.825 106.876 518.617C107.683 519.031 108.608 519.934 109.274 519.771C111.93 519.12 114.513 518.143 117.125 517.292C117.014 516.707 116.91 516.138 116.799 515.561Z" fill="#244C43"/>
<path d="M123.837 517.011C133.368 517.011 142.892 517.011 152.423 517.011C152.423 516.759 152.423 516.5 152.423 516.249C142.892 516.249 133.361 516.249 123.83 516.249C123.83 516.5 123.83 516.759 123.837 517.011Z" fill="white"/>
<path d="M106.01 484.111C113.092 483.704 120.351 483.283 127.61 482.861C120.151 481.055 112.796 480.789 106.01 484.111Z" fill="#31665A"/>
<path d="M109.289 541.667C113.181 545.234 115.616 550.192 121.395 551.953C125.014 553.055 128.247 555.394 132.051 556.541C129.298 554.883 126.738 552.634 123.756 551.709C119.286 550.31 116.023 547.676 113.144 544.257C112.153 543.081 111.146 541.911 110.147 540.742C109.859 541.046 109.578 541.356 109.289 541.667Z" fill="white"/>
<path d="M175.435 463.473C178.447 467.898 181.4 472.36 184.485 476.734C186.246 479.22 186.269 479.96 183.775 484.289C186.491 482.735 187.778 480.197 186.343 477.866C183.176 472.723 179.638 467.817 176.257 462.807C175.983 463.037 175.709 463.259 175.435 463.473Z" fill="#3D7C6E"/>
<path d="M141.618 253.489C141.382 253.237 141.137 252.978 140.901 252.727C140.619 254.244 140.346 255.76 140.02 257.551C145.533 257.551 150.609 257.551 155.678 257.551C155.685 257.314 155.693 257.078 155.7 256.833C151.112 256.833 146.532 256.833 141.463 256.833C141.522 255.509 141.567 254.503 141.618 253.489Z" fill="white"/>
<path d="M130.43 401.174C130.43 391.747 130.43 382.32 130.422 372.892C130.422 372.056 130.348 371.22 129.853 370.398C129.853 380.684 129.853 390.963 129.853 401.248C130.045 401.219 130.237 401.196 130.43 401.174Z" fill="white"/>
<path d="M234.05 234.863C230.971 236.721 228.078 239.111 224.756 240.273C221.611 241.375 217.97 241.338 215.632 237.897C215.321 237.868 215.01 237.838 214.707 237.816C214.744 239.074 214.773 240.332 214.81 241.59C215.883 241.471 217.008 241.064 218.007 241.279C224.889 242.744 232.089 240.191 234.05 234.863Z" fill="white"/>
<path d="M75.7822 486.738C75.7822 485.177 75.7822 484.111 75.7822 483.046C75.612 483.009 75.4419 482.972 75.2791 482.935C74.3393 485.695 73.3995 488.462 72.3265 491.6C75.5159 489.624 78.3056 487.893 81.2285 486.087C79.6006 486.28 77.9134 486.487 75.7822 486.738Z" fill="white"/>
<path d="M146.991 481.329C145.23 481.521 143.476 481.706 141.715 481.899C141.693 481.662 141.67 481.425 141.648 481.188C144.016 480.071 146.384 478.961 148.752 477.844C145.304 478.761 141.855 479.679 138.141 480.67C141.197 483.978 144.327 484.052 146.991 481.329Z" fill="white"/>
<path d="M235.678 249.656C229.018 252.297 222.158 252.283 215.225 251.165C221.159 254.303 231.023 253.578 235.678 249.656Z" fill="white"/>
<path d="M213.427 255.59C213.723 255.657 214.011 255.731 214.307 255.798C217.371 256.212 220.434 256.626 223.498 257.048C220.827 256.382 218.148 255.716 214.648 254.843C218.244 254.843 220.893 254.843 223.55 254.843C220.42 254.029 217.29 253.208 213.678 252.268C213.59 253.356 213.508 254.473 213.427 255.59Z" fill="#244C43"/>
<path d="M107.543 456.229C113.167 453.706 118.798 451.19 124.422 448.666C124.281 448.356 124.141 448.052 124 447.741C118.347 450.228 112.701 452.721 107.047 455.208C107.21 455.548 107.38 455.889 107.543 456.229Z" fill="white"/>
<path d="M94.8003 468.624C95.0592 468.905 95.3182 469.186 95.5772 469.467C97.0128 465.094 98.7813 461.024 102.681 458.071C104.006 457.065 104.494 454.956 105.367 453.343C105.101 452.825 104.834 452.3 104.561 451.782C103.184 454.016 101.763 456.214 100.454 458.486C98.5297 461.838 96.6872 465.242 94.8003 468.624Z" fill="white"/>
<path d="M214.085 265.965C213.907 265.439 213.722 264.921 213.545 264.396C213.478 266.276 213.404 268.155 213.338 270.035C214.351 270.012 215.38 269.879 216.386 269.983C219.509 270.301 222.624 270.715 225.747 271.085C224.09 270.59 222.425 270.109 220.774 269.583C218.318 268.806 214.818 269.931 214.085 265.965Z" fill="white"/>
<path d="M124.466 431.676C123.29 431.521 122.113 431.358 120.937 431.203C120.796 431.536 120.655 431.869 120.515 432.202C121.521 433.038 122.52 433.874 123.526 434.71C124.999 434.866 126.472 435.014 129.01 435.28C126.967 433.659 125.717 432.668 124.466 431.676Z" fill="#244C43"/>
<path d="M217.06 248.124C216.549 247.65 216.046 247.184 215.535 246.71C215.039 247.458 214.544 248.198 214.055 248.945C218.51 249.463 222.965 250.114 227.434 250.41C228.588 250.492 229.817 249.478 231.016 248.975C229.95 249.152 228.855 249.567 227.819 249.471C224.223 249.115 220.648 248.583 217.06 248.124Z" fill="#244C43"/>
<path d="M142.898 445.092C138.244 445.573 133.589 446.062 128.935 446.542C128.262 446.979 127.588 447.416 126.915 447.845C127.033 448.252 127.152 448.651 127.27 449.058C132.48 447.741 137.689 446.417 142.898 445.092Z" fill="#33665B"/>
<path d="M217.762 213.419C217.555 213.419 217.341 213.419 217.133 213.411C217.052 214.388 216.971 215.365 216.882 216.342C217.185 216.623 217.496 216.911 217.799 217.193C219.353 216.948 221.366 215.994 222.328 216.63C223.445 217.378 224.052 219.494 224.111 221.048C224.171 222.632 223.297 224.252 222.617 226.613C225.414 223.719 225.554 220.863 224.896 218.014C224.245 215.202 221.891 214.817 219.353 214.817C218.828 214.832 218.295 213.915 217.762 213.419Z" fill="white"/>
<path d="M211.798 273.483C216.031 274.149 220.263 274.815 224.489 275.481C224.999 275.244 225.51 275.007 226.021 274.771C224.208 274.534 222.306 274.556 220.589 274.008C218.162 273.246 215.868 272.062 213.522 271.063C213.463 270.701 213.404 270.338 213.345 269.975C212.834 271.145 212.316 272.314 211.798 273.483Z" fill="white"/>
<path d="M212.56 183.967C216.948 181.969 221.337 179.964 225.725 177.966C221.263 179.424 216.8 180.867 212.368 182.399C212.264 182.436 212.486 183.427 212.56 183.967Z" fill="white"/>
<path d="M255.494 202.63C256.789 197.161 255.036 192.285 252.579 187.542C253.556 192.566 254.525 197.598 255.494 202.63Z" fill="#244C43"/>
<path d="M217.8 217.2C217.496 216.919 217.186 216.63 216.882 216.349C216.919 217.651 216.956 218.954 217.001 220.256C218.34 220.264 219.687 220.264 221.026 220.264C220.671 221.98 220.316 223.697 219.909 225.658C221.781 225.221 222.269 223.579 222.321 221.573C222.373 219.612 221.781 218.258 219.531 218.073C218.939 218.029 218.377 217.503 217.8 217.2Z" fill="white"/>
<path d="M213.345 269.976C213.404 270.338 213.463 270.701 213.515 271.063C213.915 271.012 214.314 270.96 214.721 270.908C218.939 271.174 223.157 271.441 227.375 271.707C226.827 271.5 226.287 271.293 225.74 271.086C222.617 270.708 219.502 270.301 216.379 269.983C215.372 269.879 214.344 270.013 213.33 270.035C213.338 270.035 213.345 269.976 213.345 269.976Z" fill="#244C43"/>
<path d="M153.118 476.097C154.013 476.852 154.916 477.614 156.115 478.621C154.021 479.057 152.141 479.457 150.262 479.849C153.725 479.849 157.188 479.849 160.651 479.849C160.725 479.679 160.799 479.516 160.873 479.346C158.291 478.266 155.701 477.185 153.118 476.097Z" fill="white"/>
<path d="M104.568 451.782C104.834 452.3 105.1 452.825 105.374 453.343C105.618 449.791 105.87 446.239 106.114 442.687C105.596 442.672 105.086 442.658 104.568 442.643C104.568 445.692 104.568 448.733 104.568 451.782Z" fill="#366A5E"/>
<path d="M133.161 437.677C138.644 438.654 144.12 439.631 149.604 440.608C149.389 440.304 149.211 439.772 148.96 439.742C143.698 439.017 138.43 438.351 133.161 437.677Z" fill="white"/>
<path d="M124.466 431.676C125.716 432.668 126.967 433.659 129.009 435.28C126.471 435.014 124.998 434.866 123.526 434.71C125.694 436.301 127.966 437.382 131.029 436.309C129.535 433.415 127.433 431.943 124.466 431.676Z" fill="#244C43"/>
<path d="M130.659 319.739C126.959 316.039 123.259 312.339 119.567 308.64C119.404 308.795 119.241 308.943 119.071 309.098C122.801 312.798 126.53 316.491 130.267 320.183C130.393 320.028 130.526 319.88 130.659 319.739Z" fill="#244C43"/>
<path d="M253.371 224.593C253.615 224.837 253.852 225.073 254.096 225.318C254.562 221.507 255.028 217.688 255.502 213.878C254.792 217.444 254.081 221.018 253.371 224.593Z" fill="#31675B"/>
<path d="M215.654 235.766C216.113 235.944 216.579 236.121 217.038 236.299C217.038 235.951 217.038 235.611 217.038 235.263C217.03 234.856 217.03 234.442 217.023 234.035C217.304 233.79 217.593 233.546 217.874 233.295C217.408 231.681 216.801 230.09 216.505 228.448C216.246 226.983 216.327 225.451 216.253 223.949C215.802 227.145 215.351 230.335 214.899 233.524C215.158 234.271 215.402 235.019 215.654 235.766Z" fill="#32695D"/>
<path d="M130.26 320.176C134.174 322.921 138.096 325.666 142.011 328.412C142.151 328.249 142.299 328.079 142.447 327.916C138.518 325.185 134.589 322.462 130.659 319.732C130.526 319.88 130.393 320.028 130.26 320.176Z" fill="white"/>
<path d="M215.654 235.766C215.402 235.019 215.158 234.271 214.907 233.531C214.84 234.96 214.766 236.388 214.699 237.816C215.01 237.845 215.321 237.875 215.624 237.897C219.051 238.141 222.484 238.378 225.91 238.622C225.91 238.4 225.903 238.178 225.903 237.949C222.232 238.393 218.407 239.599 215.654 235.766Z" fill="white"/>
<path d="M203.429 156.773C203.903 155.937 204.377 155.101 204.85 154.265C210.918 145.858 219.605 142.543 229.499 141.552C235.234 141.789 240.961 142.018 246.696 142.255C261.37 143.949 272.41 150.713 277.309 165.209C279.344 171.24 280.609 177.567 281.727 183.849C282.378 187.505 282.03 191.338 282.134 195.089C282.141 196.68 282.141 198.264 282.149 199.855C282.371 200.913 282.859 201.993 282.77 203.022C281.275 220.352 277.265 236.965 268.37 252.12C267.786 253.119 266.75 253.851 265.928 254.71C265.181 255.886 264.426 257.063 263.679 258.247C263.434 258.92 263.331 259.705 262.924 260.252C257.552 267.46 250.855 272.98 242.286 275.969C241.109 276.384 239.733 276.221 238.445 276.325C233.82 276.576 229.203 276.828 224.578 277.079C220.789 276.85 216.993 276.621 213.204 276.391C213.138 276.473 213.064 276.554 212.997 276.635C215.313 277.301 217.63 277.967 219.946 278.633C226.139 278.596 232.333 278.559 238.527 278.53C242.589 277.05 246.807 275.888 250.648 273.971C253.43 272.58 255.716 270.183 258.218 268.237C258.684 267.526 259.046 266.712 259.624 266.113C266.69 258.713 271.7 250.011 275.43 240.576C277.635 234.997 279.425 229.262 281.401 223.593C281.66 221.899 281.912 220.204 282.171 218.51C285.131 202.948 284.894 187.431 281.512 171.958C281.142 170.655 280.831 169.331 280.402 168.05C276.917 157.476 272.159 147.701 260.918 143.483C250.078 139.413 238.823 137.349 227.198 139.539C215.735 141.7 206.374 146.931 201.254 158.046C201.994 157.617 202.712 157.195 203.429 156.773Z" fill="#244C43"/>
<path d="M201.269 158.046C206.389 146.939 215.757 141.7 227.212 139.539C238.83 137.349 250.093 139.413 260.933 143.483C272.174 147.701 276.932 157.476 280.417 168.05C280.839 169.338 281.157 170.655 281.527 171.958C281.779 171.965 282.03 171.965 282.274 171.972C279.67 153.155 267.86 141.811 247.621 138.747C237.89 137.275 228.167 137.023 218.843 140.708C210.215 144.119 203.2 149.455 199.981 158.66C200.418 158.453 200.847 158.246 201.269 158.046Z" fill="white"/>
<path d="M282.281 171.972C282.03 171.965 281.778 171.965 281.534 171.958C284.916 187.431 285.152 202.948 282.193 218.51C282.703 217.74 283.539 217.015 283.68 216.186C286.077 201.727 286.129 187.297 282.807 172.949C282.718 172.594 282.459 172.291 282.281 171.972Z" fill="#244C43"/>
<path d="M281.416 223.594C279.44 229.262 277.649 234.997 275.444 240.576C271.715 250.011 266.705 258.713 259.638 266.113C259.061 266.72 258.698 267.526 258.232 268.237C261 265.351 264.152 262.739 266.453 259.52C273.668 249.434 278.3 238.112 281.357 226.132C281.564 225.332 281.408 224.444 281.416 223.594Z" fill="#244C43"/>
<path d="M238.534 278.53C232.341 278.567 226.147 278.596 219.953 278.633C219.961 278.914 219.968 279.188 219.975 279.469C225.503 279.632 231.031 279.847 236.566 279.899C237.217 279.906 237.876 279.011 238.534 278.53Z" fill="#316559"/>
<path d="M214.722 270.908C214.322 270.96 213.915 271.011 213.523 271.063C215.876 272.062 218.17 273.246 220.597 274.008C222.314 274.549 224.208 274.534 226.028 274.771C230.054 274.393 234.19 274.475 238.083 273.55C250.744 270.553 258.987 261.754 264.944 250.951C269.125 243.358 271.981 235.048 275.437 227.057C276.458 222.224 277.472 217.4 278.493 212.568C278.508 203.969 278.523 195.371 278.545 186.779C277.043 180.564 276.007 174.192 273.942 168.176C270.161 157.136 262.606 150.061 250.825 147.605C242.545 145.873 234.324 144.852 225.91 146.014C220.967 148.012 216.031 150.017 211.088 152.015L211.14 151.978C209.105 154.279 206.966 156.492 205.102 158.926C204.621 159.555 205.006 160.85 204.991 161.842C205.908 160.547 206.826 159.252 207.743 157.957C213.316 151.571 220.59 148.892 228.811 148.271C229.514 148.071 230.209 147.723 230.92 147.694C240.621 147.279 249.93 149.136 258.787 153.021C260.423 153.739 261.577 155.53 262.954 156.825C264.086 157.92 265.395 158.875 266.313 160.125C273.239 169.59 275.689 180.467 276.236 191.937C276.695 192.766 277.553 193.595 277.546 194.423C277.509 198.834 277.257 203.244 277.08 207.647C275.837 214.299 274.601 220.952 273.358 227.604C272.81 229.609 272.396 231.659 271.685 233.605C267.586 244.868 262.51 255.546 253.289 263.686C247.688 269.117 241.013 272.306 233.265 273.276C230.209 273.305 227.109 273.653 224.104 273.268C220.923 272.839 217.844 271.722 214.722 270.908Z" fill="#244C43"/>
<path d="M225.747 271.093C226.295 271.3 226.835 271.507 227.382 271.714C228.618 271.714 229.854 271.707 231.082 271.7C231.304 271.522 231.534 271.344 231.756 271.167C232.762 270.642 233.717 269.857 234.782 269.635C240.931 268.333 246.267 265.513 250.892 261.296C252.949 259.416 254.969 257.492 257.004 255.59L256.982 255.62C257.455 254.643 257.84 253.607 258.425 252.697C271.078 232.74 276.214 211.095 272.751 187.638C271.877 181.725 270.153 175.939 268.821 170.093C265.876 166.415 262.931 162.73 259.993 159.052C249.722 153.251 238.682 151.149 227.072 152.836C222.654 153.48 218.392 155.212 214.055 156.448L214.092 156.418C210.873 159.637 207.647 162.863 204.428 166.082L204.472 166.045C204.487 166.504 204.502 166.955 204.517 167.414C205.013 167.399 205.501 167.377 205.997 167.362C207.196 166.045 208.387 164.735 209.578 163.418C213.093 158.142 218.651 156.655 224.363 155.463C234.952 152.888 244.972 155.271 254.806 159.037C255.701 159.378 256.301 160.51 257.033 161.272C259.068 162.93 261.111 164.587 263.146 166.245C269.458 175.051 271.389 185.159 271.922 195.681C271.914 200.151 271.9 204.62 271.892 209.09C271.189 218.606 269.273 227.826 265.129 236.499C264.892 236.898 264.655 237.305 264.418 237.705C261.976 242.567 259.756 247.554 257.004 252.231C255.709 254.429 253.385 256.012 251.528 257.877C250.884 258.35 250.248 258.824 249.604 259.298C248.575 260.578 247.769 262.147 246.489 263.086C237.727 269.569 227.826 269.983 217.607 268.066C216.616 267.881 215.809 266.734 214.914 266.031C214.64 266.009 214.359 265.987 214.085 265.972C214.817 269.939 218.318 268.814 220.774 269.598C222.424 270.116 224.089 270.59 225.747 271.093Z" fill="#244C43"/>
<path d="M259.978 159.045C262.923 162.723 265.869 166.408 268.806 170.085C269.753 172.202 271.019 174.237 271.611 176.449C277.938 200.121 275.052 222.898 264.366 244.735C262.457 248.635 259.468 251.994 256.974 255.605L256.996 255.576C256.286 256.686 255.709 257.921 254.835 258.883C248.612 265.713 241.094 270.175 231.748 271.152C231.526 271.33 231.297 271.507 231.075 271.685C231.593 271.833 232.103 271.988 232.621 272.136C240.768 271.796 247.132 267.585 253.185 262.687C262.931 252.49 268.895 240.236 272.632 226.783C273.868 220.123 275.111 213.463 276.347 206.803C276.302 201.838 276.258 196.88 276.213 191.915C275.666 180.445 273.209 169.567 266.29 160.103C265.373 158.853 264.063 157.891 262.931 156.795C259.053 155.012 255.339 152.466 251.269 151.608C244.379 150.15 237.261 149.751 230.238 148.9C224.785 150.594 219.264 152.119 213.9 154.072C211.665 154.886 209.771 156.618 207.721 157.928C206.803 159.223 205.886 160.517 204.968 161.812C204.79 163.218 204.62 164.624 204.45 166.03L204.406 166.067C206.322 161.546 209.519 158.298 214.07 156.403L214.033 156.433C215.676 155.441 217.207 154.087 218.983 153.51C231.955 149.285 244.601 150.839 256.93 156.129C258.143 156.655 258.972 158.053 259.978 159.045Z" fill="#244C43"/>
<path d="M275.43 227.057C271.981 235.048 269.118 243.358 264.937 250.951C258.987 261.762 250.744 270.553 238.075 273.55C234.176 274.475 230.047 274.393 226.021 274.771C225.511 275.007 225 275.244 224.489 275.481C240.71 277.479 252.549 270.198 261.895 257.751C268.104 249.478 272.337 240.206 275.171 230.29C275.467 229.277 275.356 228.137 275.43 227.057Z" fill="white"/>
<path d="M225.896 146.006C234.309 144.845 242.538 145.873 250.811 147.597C262.591 150.061 270.146 157.128 273.928 168.169C275.985 174.192 277.028 180.564 278.53 186.772C278.767 186.772 279.004 186.772 279.233 186.772C279.078 177.441 276.118 168.879 271.671 160.843C267.579 153.458 261.104 149.055 252.905 147.042C243.988 144.852 235.049 143.476 225.896 145.385C225.896 145.599 225.896 145.799 225.896 146.006Z" fill="white"/>
<path d="M282.133 195.089C282.03 191.338 282.377 187.505 281.726 183.849C280.609 177.567 279.344 171.232 277.309 165.209C272.41 150.713 261.369 143.949 246.696 142.255C246.451 142.514 246.207 142.765 245.97 143.024C259.593 144.919 270.989 150.409 275.681 164.269C278.411 172.328 279.558 180.919 281.349 189.281C281.756 191.182 281.882 193.151 282.133 195.089Z" fill="white"/>
<path d="M265.935 254.71C266.757 253.851 267.793 253.119 268.377 252.12C277.272 236.958 281.283 220.352 282.777 203.022C282.866 201.993 282.378 200.913 282.156 199.855C281.727 203.37 281.334 206.885 280.861 210.4C278.826 225.503 274.49 239.843 266.661 253.023C266.35 253.541 266.172 254.147 265.935 254.71Z" fill="white"/>
<path d="M238.452 276.325C239.74 276.221 241.116 276.384 242.293 275.969C250.862 272.972 257.559 267.46 262.931 260.252C263.338 259.705 263.441 258.92 263.686 258.247C260.814 261.244 258.343 264.825 254.991 267.112C249.789 270.642 243.995 273.298 238.452 276.325Z" fill="white"/>
<path d="M229.499 141.544C219.613 142.543 210.918 145.858 204.85 154.257C205.561 153.813 206.397 153.495 206.967 152.91C213.76 145.969 222.203 142.921 231.689 142.277C230.964 142.033 230.232 141.789 229.499 141.544Z" fill="white"/>
<path d="M279.24 186.772C279.003 186.772 278.767 186.772 278.537 186.772C278.522 195.371 278.508 203.969 278.485 212.56C278.966 210.688 279.862 208.816 279.854 206.951C279.81 200.232 279.47 193.506 279.24 186.772Z" fill="white"/>
<path d="M229.499 141.544C230.231 141.789 230.964 142.033 231.696 142.277C236.455 142.521 241.213 142.773 245.963 143.017C246.208 142.758 246.452 142.506 246.688 142.247C240.968 142.018 235.234 141.781 229.499 141.544Z" fill="#346B5E"/>
<path d="M225.896 146.006C225.896 145.799 225.896 145.592 225.896 145.392C220.368 146.288 215.025 147.597 211.074 152.008C216.017 150.01 220.96 148.004 225.896 146.006Z" fill="white"/>
<path d="M268.814 207.366C268.103 211.591 267.519 215.839 266.668 220.042C263.634 235.034 257.833 248.62 246.289 259.194C246.651 259.231 247.014 259.275 247.377 259.312C255.479 252.756 260.474 244.002 263.649 234.382C266.202 226.635 267.563 218.488 269.332 210.496C269.539 209.534 269.006 208.409 268.814 207.366Z" fill="white"/>
<path d="M214.914 266.031C215.81 266.734 216.616 267.881 217.608 268.066C227.827 269.976 237.728 269.569 246.489 263.086C247.762 262.147 248.576 260.578 249.604 259.298C239.4 268.54 227.605 269.576 214.914 266.031Z" fill="#356C5F"/>
<path d="M257.019 161.265C256.286 160.503 255.687 159.378 254.791 159.03C244.957 155.264 234.937 152.881 224.348 155.456C224.363 155.722 224.385 155.981 224.4 156.248C235.796 154.546 246.666 156.226 257.019 161.265Z" fill="white"/>
<path d="M271.914 195.674C271.381 185.144 269.45 175.036 263.138 166.237C263.308 167.044 263.278 167.962 263.671 168.635C268.488 176.997 270.338 186.165 271.107 195.637C271.374 195.652 271.64 195.659 271.914 195.674Z" fill="white"/>
<path d="M265.122 236.499C269.258 227.826 271.182 218.613 271.878 209.09C271.626 208.587 271.382 208.091 271.131 207.588C269.377 215.809 267.616 224.03 265.877 232.251C265.581 233.657 265.373 235.078 265.122 236.499Z" fill="white"/>
<path d="M247.377 259.312C247.014 259.275 246.652 259.231 246.289 259.194C239.348 263.863 231.926 266.727 223.357 265.462C222.817 265.38 222.203 265.802 221.626 265.987C231.356 268.177 239.859 265.639 247.377 259.312Z" fill="white"/>
<path d="M251.528 257.877C253.386 256.012 255.709 254.429 257.004 252.231C259.757 247.554 261.984 242.567 264.419 237.705C260.12 244.424 255.82 251.15 251.528 257.877Z" fill="#244C43"/>
<path d="M265.891 180.919C266.868 186.868 267.844 192.81 268.821 198.76C269.635 192.522 269.213 186.483 265.891 180.919Z" fill="#32695D"/>
<path d="M239.348 158.564C239.082 158.793 238.816 159.03 238.549 159.259C245.409 160.436 252.172 161.872 257.767 166.445C256.42 165.127 255.295 163.181 253.689 162.612C249.005 160.969 244.136 159.874 239.348 158.564Z" fill="white"/>
<path d="M271.137 207.588C271.389 208.091 271.633 208.587 271.884 209.09C271.892 204.62 271.907 200.151 271.914 195.681C271.648 195.667 271.374 195.652 271.107 195.637C271.115 199.618 271.122 203.599 271.137 207.588Z" fill="#366A5E"/>
<path d="M224.4 156.255C224.386 155.989 224.363 155.73 224.349 155.463C218.636 156.655 213.079 158.142 209.564 163.418C214.507 161.028 219.457 158.638 224.4 156.255Z" fill="white"/>
<path d="M221.515 163.263C216.623 165.453 211.628 167.503 209.112 171.588C213.656 169.597 218.621 166.496 224.016 165.275C233.095 163.218 242.138 164.669 250.477 169.02C256.168 171.987 259.15 177.278 261.133 183.065C262.28 186.409 262.761 189.983 263.546 193.454C263.738 194.904 264.027 196.347 264.115 197.798C264.589 205.567 265.04 213.337 262.169 220.826C260.452 226.176 258.736 231.533 257.026 236.883C254.688 244.646 250.529 251.106 243.647 255.627L243.692 255.59C240.332 259.283 236.122 261.162 231.179 261.503C227.442 261.517 223.697 261.532 219.961 261.54C221.285 262.021 222.632 262.983 223.919 262.901C228.678 262.598 233.413 261.947 238.157 261.421C241.487 258.928 245.187 256.796 248.073 253.873C257.47 244.335 261.636 232.162 264.515 219.435C265.003 215.239 265.492 211.036 265.973 206.84C265.24 199.633 264.507 192.425 263.775 185.211C262.169 178.358 258.706 172.549 253.881 167.495C253.304 167.022 252.72 166.556 252.142 166.082C251.188 165.904 250.189 165.853 249.293 165.534C240.229 162.264 230.986 161.42 221.515 163.263Z" fill="#244C43"/>
<path d="M264.508 219.435C261.629 232.162 257.463 244.335 248.065 253.874C245.179 256.804 241.479 258.928 238.149 261.429C238.542 261.488 238.941 261.54 239.333 261.599C245.823 258.898 250.337 253.918 254.133 248.294C259.89 239.755 263.427 230.283 265.203 220.145C264.966 219.901 264.737 219.672 264.508 219.435Z" fill="white"/>
<path d="M239.326 261.591C238.934 261.532 238.542 261.48 238.142 261.421C233.399 261.939 228.663 262.59 223.905 262.901C222.617 262.983 221.271 262.021 219.946 261.54C218.222 261.281 216.49 261.022 214.766 260.763C215.462 261.658 216.032 263.175 216.868 263.338C224.49 264.818 232.126 265.706 239.326 261.591Z" fill="#31665A"/>
<path d="M263.767 185.211C264.5 192.418 265.232 199.626 265.965 206.84C266.224 208.128 266.475 209.415 266.734 210.703C268.199 201.764 266.993 193.047 264.5 184.448C264.255 184.707 264.011 184.959 263.767 185.211Z" fill="#326459"/>
<path d="M221.515 163.263C230.979 161.42 240.222 162.264 249.279 165.534C250.174 165.86 251.173 165.912 252.128 166.082C242.368 160.932 232.097 160.118 221.456 162.501C221.478 162.76 221.5 163.011 221.515 163.263Z" fill="white"/>
<path d="M263.768 185.211C264.012 184.959 264.256 184.7 264.508 184.449C262.058 179.513 259.698 174.518 257.071 169.678C256.523 168.672 254.969 168.213 253.874 167.503C258.699 172.55 262.155 178.366 263.768 185.211Z" fill="#244C43"/>
<path d="M266.734 210.703C266.475 209.415 266.216 208.128 265.965 206.84C265.476 211.036 264.995 215.239 264.507 219.435C264.736 219.672 264.973 219.901 265.203 220.138C265.713 216.993 266.224 213.848 266.734 210.703Z" fill="#316559"/>
<path d="M209.645 175.569C209.645 175.887 209.645 176.198 209.645 176.516C214.204 174.229 218.54 170.892 223.372 169.886C233.517 167.769 243.47 168.946 251.958 175.894C252.313 176.183 252.845 176.264 253.297 176.434C249.22 170.1 242.419 169.294 235.952 168.376C226.273 166.992 217.119 168.428 209.645 175.569Z" fill="white"/>
<path d="M259.254 220.833C256.568 231.681 252.824 242.026 244.958 250.373C243.537 251.883 242.101 253.378 240.681 254.887C246.312 252.046 249.967 247.162 252.446 241.745C255.532 235.004 257.626 227.819 260.149 220.826C259.853 220.826 259.557 220.826 259.254 220.833Z" fill="white"/>
<path d="M259.253 220.833C259.549 220.826 259.845 220.826 260.148 220.819C262.25 213.034 262.479 205.146 261.34 197.206C261.221 196.362 260.415 195.622 259.926 194.838C259.704 203.503 259.482 212.168 259.253 220.833Z" fill="#244C43"/>
<path d="M262.169 220.826C265.04 213.337 264.589 205.567 264.115 197.798C264.027 196.34 263.738 194.897 263.546 193.454C263.309 193.454 263.079 193.454 262.843 193.461C262.621 202.578 262.391 211.702 262.169 220.826Z" fill="#326B5E"/>
<path d="M243.64 255.62C250.522 251.099 254.68 244.639 257.019 236.876C252.564 243.129 248.102 249.375 243.64 255.62Z" fill="#3D7C6E"/>
<path d="M253.267 176.397C255.502 181.466 257.737 186.535 259.972 191.604C259.291 185.847 257.633 180.527 253.267 176.397Z" fill="#3D7C6E"/>
<path d="M231.171 261.495C236.115 261.162 240.332 259.283 243.685 255.583C239.511 257.559 235.338 259.527 231.171 261.495Z" fill="white"/>
<path d="M240.406 251.942C242.108 250.61 244.151 249.552 245.453 247.902C256.012 234.56 259.786 219.124 259.083 202.386C258.839 202.652 258.595 202.926 258.358 203.192C258.284 221.618 253.792 238.415 240.406 251.942Z" fill="white"/>
<path d="M258.358 203.192C258.602 202.926 258.846 202.652 259.083 202.386C257.736 196.399 256.463 190.398 254.961 184.456C254.71 183.457 253.452 182.717 252.66 181.859C254.554 188.97 256.456 196.081 258.358 203.192Z" fill="white"/>
<path d="M251.099 179.727C250.373 178.647 249.892 177.211 248.893 176.56C244.017 173.393 238.8 171.151 232.762 172.002C235.145 172.557 237.683 172.757 239.866 173.741C243.721 175.487 247.362 177.707 251.099 179.727Z" fill="white"/>
<path d="M230.291 209.053C233.103 216.068 231.904 222.787 228.774 229.358C228.818 229.758 228.863 230.157 228.907 230.557C233.628 223.49 234.731 216.09 230.972 208.239C230.742 208.513 230.513 208.779 230.291 209.053Z" fill="#31665A"/>
<path d="M230.291 209.053C230.52 208.779 230.742 208.513 230.972 208.239C227.42 203.636 222.61 204.45 217.815 205.183C218.015 205.664 218.207 206.145 218.399 206.626C222.743 205.56 226.924 205.323 230.291 209.053Z" fill="#244C43"/>
<path d="M228.899 230.564C228.855 230.165 228.811 229.765 228.766 229.365C226.013 233.102 222.314 234.212 217.881 233.295C217.6 233.539 217.311 233.783 217.03 234.035C222.402 235.907 225.207 235.085 228.899 230.564Z" fill="#33665B"/>
<path d="M217.06 248.124C220.641 248.583 224.223 249.115 227.812 249.463C228.855 249.567 229.943 249.152 231.008 248.967C232.392 248.227 233.776 247.487 235.152 246.755C246.548 236.195 250.618 222.654 250.122 207.706C249.93 201.801 247.821 195.955 246.592 190.08C243.618 185.462 239.045 183.442 233.924 182.317C228.034 183.065 222.143 183.819 216.246 184.567L216.268 184.552C215.905 185.262 215.535 185.973 214.855 187.29C220.545 185.322 225.673 183.42 231.164 185.203C240.391 186.239 244.831 189.998 247.244 198.871C247.762 200.765 248.154 202.682 248.613 204.591C248.442 209.045 248.272 213.5 248.095 217.955C247.103 221.107 246.111 224.267 245.127 227.419C244.95 233.428 241.635 237.823 237.698 241.901C231.919 247.628 224.778 248.827 217.06 248.124Z" fill="white"/>
<path d="M246.6 190.08C247.836 195.955 249.938 201.801 250.13 207.706C250.618 222.654 246.556 236.195 235.16 246.755C237.935 244.098 241.45 241.893 243.352 238.719C251.454 225.17 253.364 210.562 249.22 195.289C248.724 193.447 247.488 191.811 246.6 190.08Z" fill="white"/>
<path d="M216.26 184.567C222.151 183.819 228.041 183.065 233.938 182.317C227.797 181.126 221.67 180.053 216.26 184.567Z" fill="white"/>
<path d="M248.62 204.598C248.169 202.689 247.769 200.765 247.251 198.878C244.839 190.006 240.399 186.254 231.171 185.211C230.92 185.44 230.668 185.677 230.417 185.906C241.642 187.727 245.401 191.989 247.481 205.227C247.865 205.02 248.243 204.813 248.62 204.598Z" fill="white"/>
<path d="M236.24 190.464C242.404 194.475 243.803 200.972 245.113 207.506C245.327 207.506 245.549 207.499 245.764 207.499C244.632 203.407 243.98 199.078 242.182 195.304C241.191 193.225 238.282 192.048 236.24 190.464Z" fill="white"/>
<path d="M245.757 207.506C245.542 207.506 245.32 207.514 245.105 207.514C244.129 214.921 243.144 222.328 242.168 229.735C246.141 222.772 246.252 215.187 245.757 207.506Z" fill="#244C43"/>
<path d="M232.578 242.367C228.796 244.668 224.778 245.719 220.323 245.001C219.317 244.838 218.222 245.26 217.171 245.408C222.595 246.688 227.893 247.066 232.637 243.321C232.615 243.003 232.592 242.685 232.578 242.367Z" fill="#33665B"/>
<path d="M218.473 189.747C224.408 189.991 230.343 190.243 236.277 190.487C230.468 187.268 224.526 187.075 218.473 189.747Z" fill="#244C43"/>
<path d="M232.578 242.367C232.6 242.685 232.622 242.996 232.637 243.314C237.565 239.984 240.806 235.47 242.197 229.669C238.993 233.901 235.782 238.134 232.578 242.367Z" fill="#244C43"/>
<path d="M237.712 241.915C241.649 237.838 244.964 233.435 245.142 227.434C242.663 232.259 240.184 237.083 237.712 241.915Z" fill="white"/>
<path d="M248.62 204.598C248.243 204.813 247.858 205.02 247.481 205.235C247.688 209.482 247.895 213.722 248.102 217.97C248.28 213.508 248.45 209.053 248.62 204.598Z" fill="white"/>
<path d="M242.159 206.67C242.64 214.95 242.448 223.164 238.423 230.705C236.817 233.709 234.767 236.476 232.917 239.355C234.108 238.363 235.611 237.579 236.439 236.343C241.856 228.255 244.379 219.331 243.484 209.571C243.395 208.572 242.618 207.639 242.159 206.67Z" fill="white"/>
<path d="M234.76 197.864C242.152 208.372 240.791 219.242 236.107 230.253C235.441 231.815 234.723 233.354 234.02 234.9C235.944 230.904 238.386 227.071 239.673 222.883C241.657 216.453 241.546 209.756 239.052 203.414C238.238 201.32 236.225 199.699 234.76 197.864Z" fill="white"/>
<path d="M217.83 197.102C223.616 194.49 229.218 195.896 234.79 197.894C230.75 194.024 221.241 193.58 217.83 197.102Z" fill="white"/>
<path d="M225.999 198.649C233.443 200.284 236.913 205.101 237.128 212.531C237.35 211.82 237.572 211.11 237.794 210.4C236.958 202.334 233.221 198.612 225.999 198.649Z" fill="#244C43"/>
<path d="M225.903 237.949C225.903 238.171 225.91 238.393 225.91 238.622C231.29 237.024 233.613 232.606 235.67 227.982C236.262 226.657 236.625 225.229 237.099 223.845C236.832 223.586 236.558 223.327 236.292 223.075C234.494 229.195 231.941 234.789 225.903 237.949Z" fill="white"/>
<path d="M236.292 223.075C236.558 223.334 236.825 223.593 237.098 223.845C237.328 219.361 237.557 214.876 237.794 210.4C237.572 211.11 237.35 211.82 237.128 212.531C236.847 216.046 236.573 219.561 236.292 223.075Z" fill="#366A5E"/>
<path d="M217.045 235.263C217.045 235.611 217.045 235.951 217.045 236.299C224.053 238.275 228.751 236.358 232.133 229.965C235.404 223.779 236.632 217.259 234.864 210.34C234.649 210.629 234.442 210.91 234.227 211.199C235.53 217.592 234.242 223.571 231.304 229.269C228.145 235.367 223.683 237.217 217.045 235.263Z" fill="#244C43"/>
<path d="M217.045 235.263C223.683 237.217 228.145 235.367 231.297 229.269C234.235 223.579 235.523 217.592 234.22 211.199C232.245 204.31 228.226 201.409 221.618 202.526C220.242 202.763 219.08 204.265 217.815 205.19C222.61 204.458 227.42 203.644 230.972 208.246C234.723 216.097 233.621 223.497 228.907 230.564C225.215 235.093 222.41 235.907 217.038 234.035C217.031 234.442 217.038 234.849 217.045 235.263Z" fill="#24564B"/>
<path d="M232.629 272.151C232.111 272.003 231.601 271.855 231.083 271.7C229.847 271.7 228.611 271.707 227.383 271.707C223.165 271.441 218.947 271.174 214.729 270.908C217.852 271.714 220.93 272.839 224.105 273.246C227.109 273.638 230.21 273.283 233.266 273.254C233.044 272.891 232.836 272.521 232.629 272.151Z" fill="#336258"/>
<path d="M272.639 226.79C268.902 240.243 262.938 252.497 253.193 262.694C253.222 263.02 253.252 263.345 253.281 263.671C262.501 255.538 267.578 244.853 271.677 233.591C272.388 231.644 272.802 229.587 273.35 227.589C273.113 227.323 272.876 227.057 272.639 226.79Z" fill="white"/>
<path d="M230.246 148.915C237.268 149.758 244.387 150.158 251.276 151.623C255.346 152.489 259.068 155.027 262.938 156.81C261.562 155.515 260.4 153.724 258.772 153.007C249.915 149.129 240.606 147.272 230.905 147.679C230.194 147.708 229.499 148.056 228.796 148.256C229.277 148.478 229.765 148.693 230.246 148.915Z" fill="#377466"/>
<path d="M230.246 148.915C229.765 148.693 229.277 148.478 228.796 148.256C220.575 148.878 213.301 151.556 207.728 157.942C209.778 156.633 211.673 154.901 213.907 154.087C219.272 152.133 224.785 150.609 230.246 148.915Z" fill="white"/>
<path d="M253.274 263.671C253.245 263.345 253.215 263.02 253.186 262.694C247.133 267.593 240.769 271.803 232.622 272.144C232.829 272.514 233.043 272.884 233.25 273.261C240.998 272.292 247.673 269.102 253.274 263.671Z" fill="white"/>
<path d="M272.64 226.79C272.877 227.057 273.113 227.323 273.35 227.589C274.593 220.937 275.829 214.284 277.072 207.632C276.835 207.358 276.599 207.084 276.354 206.811C275.119 213.471 273.876 220.13 272.64 226.79Z" fill="white"/>
<path d="M276.354 206.818C276.591 207.092 276.828 207.366 277.072 207.639C277.249 203.229 277.501 198.826 277.538 194.416C277.545 193.587 276.687 192.758 276.228 191.93C276.265 196.888 276.31 201.853 276.354 206.818Z" fill="white"/>
<path d="M256.975 255.62C259.468 252.009 262.465 248.649 264.367 244.75C275.052 222.905 277.938 200.136 271.611 176.464C271.019 174.252 269.761 172.217 268.807 170.1C270.139 175.946 271.863 181.733 272.736 187.638C276.199 211.095 271.064 232.74 258.41 252.697C257.84 253.607 257.456 254.643 256.975 255.62Z" fill="white"/>
<path d="M259.979 159.045C258.972 158.053 258.143 156.655 256.937 156.129C244.616 150.846 231.963 149.285 218.991 153.51C217.215 154.087 215.683 155.441 214.04 156.433C218.377 155.197 222.639 153.465 227.057 152.822C238.667 151.149 249.708 153.243 259.979 159.045Z" fill="#244C43"/>
<path d="M231.748 271.167C241.094 270.19 248.612 265.728 254.835 258.898C255.709 257.936 256.286 256.7 256.996 255.59C254.961 257.492 252.941 259.416 250.884 261.295C246.266 265.513 240.924 268.333 234.774 269.635C233.709 269.857 232.754 270.641 231.748 271.167Z" fill="white"/>
<path d="M214.077 156.418C209.526 158.312 206.33 161.561 204.413 166.082C207.632 162.856 210.858 159.637 214.077 156.418Z" fill="#244C43"/>
</g>
<defs>
<clipPath id="clip0_272_26366">
<rect width="443.352" height="604.968" fill="white"/>
</clipPath>
</defs>
</svg>
