<svg width="196" height="217" viewBox="0 0 196 217" fill="none" xmlns="http://www.w3.org/2000/svg">
<rect width="196" height="217" fill="#244C43"/>
<path d="M97.9957 206.121C83.7622 201.486 78.9498 177.009 63.0833 180.905C57.245 182.338 55.3367 186.901 49.2458 182.858C43.3623 178.951 40.8769 166.271 37.1922 160.297C24.5012 139.701 11.6141 123.759 11.9083 98.0003C12.4438 51.7697 50.9241 11.3434 97.9919 11.9167C144.189 12.4824 184.404 51.1738 184.076 98.0003C183.898 123.047 172.708 139.849 158.833 159.434C155.088 164.718 151.23 176.028 144.83 179.113C140.002 181.44 136.178 178.48 131.441 179.117C115.65 181.248 113.1 202.379 97.9957 206.121Z" fill="#E17858"/>
<path d="M97.9958 13.8289C143.314 14.2852 182.827 51.8339 182.167 98.0004C182.171 122.062 171.645 139.619 157.476 157.978C153.829 162.704 150.83 170.492 145.697 173.943C138.396 178.853 136.717 174.467 129.318 176.579C115.318 180.577 112.056 199.709 97.9996 203.439C83.8528 198.842 79.4289 176.545 63.8339 177.914C58.0824 178.419 55.7554 181.746 50.3019 177.839C45.003 174.041 42.2498 163.673 38.5236 158.268C25.248 139.034 13.5112 122.67 13.8318 97.9966C14.2806 52.6825 51.8255 13.1689 97.9958 13.8289ZM97.9958 10.0084C74.839 9.66896 52.1423 19.6445 35.7742 35.7826C19.1609 51.9169 10.1659 75.0209 10 98.0042C10.1848 123.895 22.1554 141.787 35.7742 162.485C38.6707 169.436 42.114 185.777 49.2345 188.444C58.6557 191.974 54.7409 184.103 64.3015 182.345C79.9531 179.475 83.7057 204.661 97.9958 208.301C112.131 203.322 116.02 181.731 131.69 181.229C135.665 181.101 139.418 185.204 143.891 184.099C151.468 182.232 157.227 167.177 160.217 161.64C174.474 142.247 186.357 123.009 185.992 97.9966C186.331 74.8399 176.356 52.1432 160.217 35.775C144.083 19.1655 120.979 10.1706 97.9958 10.0084Z" fill="#244C43"/>
<path d="M87.3604 65.2187C87.3604 72.7541 84.3093 94.1232 76.0309 93.9799C67.5413 93.8328 64.7014 73.2934 64.7014 65.2187C64.7014 57.144 67.5602 36.6008 76.0309 36.4575C84.3281 36.3142 87.3604 57.6871 87.3604 65.2187Z" fill="#244C43"/>
<path d="M131.286 65.2187C131.286 72.7541 128.235 94.1232 119.957 93.9799C111.467 93.8328 108.627 73.2934 108.627 65.2187C108.627 57.144 111.486 36.6008 119.957 36.4575C128.254 36.3142 131.286 57.6871 131.286 65.2187Z" fill="#244C43"/>
<path d="M97.9959 165.234C61.6654 165.344 29.9097 129.466 29.9172 94.6739C29.9172 93.4067 30.9431 92.3809 32.2103 92.3809C33.4775 92.3809 34.5033 93.4067 34.5033 94.6739C34.4996 128.957 63.5926 158.332 97.9922 158.332C132.369 158.332 161.489 128.975 161.481 94.6739C161.481 93.4067 162.507 92.3809 163.774 92.3809C165.041 92.3809 166.067 93.4067 166.067 94.6739C166.078 129.462 134.326 165.344 97.9959 165.234Z" fill="#244C43"/>
<path d="M42.0914 101.719C41.3899 101.719 40.696 101.398 40.2472 100.791C38.3765 98.2643 35.4499 96.8161 32.2102 96.8161H32.2064C28.9743 96.8161 26.0476 98.2643 24.1807 100.791C23.4264 101.81 21.9933 102.024 20.9712 101.274C19.9492 100.523 19.738 99.0865 20.4885 98.0644C23.2266 94.3571 27.4959 92.23 32.2026 92.23H32.2064C36.9132 92.23 41.1863 94.3571 43.9319 98.0644C44.6862 99.0827 44.4712 100.52 43.4529 101.274C43.0418 101.572 42.5628 101.719 42.0914 101.719Z" fill="#244C43"/>
<path d="M173.659 101.874C172.957 101.874 172.263 101.553 171.815 100.946C169.948 98.4189 167.014 96.9706 163.778 96.9706H163.774C160.542 96.9706 157.615 98.4189 155.748 100.946C154.994 101.964 153.557 102.179 152.539 101.428C151.52 100.674 151.305 99.241 152.06 98.219C154.798 94.5154 159.067 92.3845 163.774 92.3845H163.778C168.484 92.3845 172.757 94.5116 175.503 98.219C176.257 99.2373 176.042 100.674 175.024 101.428C174.609 101.726 174.13 101.874 173.659 101.874Z" fill="#244C43"/>
</svg>
