<svg width="196" height="217" viewBox="0 0 196 217" fill="none" xmlns="http://www.w3.org/2000/svg">
<g clip-path="url(#clip0_164_319)">
<path d="M108.16 56.6192H104.992C104.992 48.1712 102.299 40.3568 96.9136 33.176C91.528 25.9952 83.8192 22.4048 73.7872 22.4048C68.1904 22.4048 63.544 25.6784 59.848 32.2256C56.2576 38.7728 54.4624 49.9664 54.4624 65.8064C54.4624 81.6464 56.2576 92.84 59.848 99.3872C63.544 105.934 69.2464 109.208 76.9552 109.208C84.7696 109.208 91.3168 106.779 96.5968 101.922C101.982 97.064 105.309 90.2 106.576 81.3296H109.744C108.266 91.784 104.57 99.5984 98.656 104.773C92.848 109.842 85.8784 112.376 77.7472 112.376C62.0128 112.376 49.9216 108.627 41.4736 101.13C33.1312 93.5264 28.96 81.6992 28.96 65.648C28.96 49.4912 33.0256 37.7168 41.1568 30.3248C49.3936 22.9328 60.2704 19.2368 73.7872 19.2368C81.0736 19.2368 88.1488 21.1904 95.0128 25.0976C97.2304 26.4704 99.0256 27.1568 100.398 27.1568C101.877 27.1568 103.038 26.5232 103.883 25.256C104.728 23.8832 105.15 22.5632 105.15 21.296H108.16V56.6192Z" fill="#FFFCFA"/>
<path d="M106.432 112.464V153.331C116.992 153.331 124.067 151.8 127.658 148.738C131.248 145.675 133.043 140.554 133.043 133.373C133.043 126.192 131.195 120.912 127.499 117.533C123.803 114.154 116.781 112.464 106.432 112.464ZM168.683 199.584H161.714C148.514 199.584 139.326 196.733 134.152 191.03C130.034 186.595 127.235 180.734 125.757 173.448C125.123 170.386 124.437 167.587 123.698 165.053C122.008 159.35 118.576 156.499 113.402 156.499H106.432V194.832H114.352V198H74.752V194.832H82.672V112.464H74.752V109.296H116.411C143.339 109.296 156.803 117.163 156.803 132.898C156.803 139.128 154.533 144.197 149.992 148.104C145.451 152.011 139.643 153.965 132.568 153.965V155.074C143.128 155.074 150.467 162.043 154.586 175.982C156.698 183.374 158.81 188.654 160.922 191.822C163.139 194.885 165.726 196.416 168.683 196.416V199.584Z" fill="#FFFCFA"/>
</g>
<defs>
<clipPath id="clip0_164_319">
<rect width="196" height="217" fill="white"/>
</clipPath>
</defs>
</svg>
