<svg width="196" height="217" viewBox="0 0 196 217" fill="none" xmlns="http://www.w3.org/2000/svg">
<rect width="196" height="217" fill="#244C43"/>
<path d="M97.9957 205.121C83.7622 200.486 78.9498 176.009 63.0833 179.905C57.245 181.338 55.3367 185.901 49.2458 181.858C43.3623 177.951 40.8769 165.271 37.1922 159.297C24.5012 138.701 11.6141 122.759 11.9083 97.0003C12.4438 50.7697 50.9241 10.3434 97.9919 10.9167C144.189 11.4824 184.404 50.1738 184.076 97.0003C183.898 122.047 172.708 138.849 158.833 158.434C155.088 163.718 151.23 175.028 144.83 178.113C140.002 180.44 136.178 177.48 131.441 178.117C115.65 180.248 113.1 201.379 97.9957 205.121Z" fill="#E17858"/>
<path d="M97.9958 12.8289C143.314 13.2852 182.827 50.8339 182.167 97.0004C182.171 121.062 171.645 138.619 157.476 156.978C153.829 161.704 150.83 169.492 145.697 172.943C138.396 177.853 136.717 173.467 129.318 175.579C115.318 179.577 112.056 198.709 97.9996 202.439C83.8528 197.842 79.4289 175.545 63.8339 176.914C58.0824 177.419 55.7554 180.746 50.3019 176.839C45.003 173.041 42.2498 162.673 38.5236 157.268C25.248 138.034 13.5112 121.67 13.8318 96.9966C14.2806 51.6825 51.8255 12.1689 97.9958 12.8289ZM97.9958 9.0084C74.839 8.66896 52.1423 18.6445 35.7742 34.7826C19.1609 50.9169 10.1659 74.0209 10 97.0042C10.1848 122.895 22.1554 140.787 35.7742 161.485C38.6707 168.436 42.114 184.777 49.2345 187.444C58.6557 190.974 54.7409 183.103 64.3015 181.345C79.9531 178.475 83.7057 203.661 97.9958 207.301C112.131 202.322 116.02 180.731 131.69 180.229C135.665 180.101 139.418 184.204 143.891 183.099C151.468 181.232 157.227 166.177 160.217 160.64C174.474 141.247 186.357 122.009 185.992 96.9966C186.331 73.8399 176.356 51.1432 160.217 34.775C144.083 18.1655 120.979 9.17057 97.9958 9.0084Z" fill="#244C43"/>
<path d="M87.3604 64.2187C87.3604 71.7541 84.3093 93.1232 76.0309 92.9799C67.5413 92.8328 64.7014 72.2934 64.7014 64.2187C64.7014 56.144 67.5602 35.6008 76.0309 35.4575C84.3281 35.3142 87.3604 56.6871 87.3604 64.2187Z" fill="#244C43"/>
<path d="M131.286 64.2187C131.286 71.7541 128.235 93.1232 119.957 92.9799C111.467 92.8328 108.627 72.2934 108.627 64.2187C108.627 56.144 111.486 35.6008 119.957 35.4575C128.254 35.3142 131.286 56.6871 131.286 64.2187Z" fill="#244C43"/>
<path d="M97.9959 164.234C61.6654 164.344 29.9097 128.466 29.9172 93.6739C29.9172 92.4067 30.9431 91.3809 32.2103 91.3809C33.4775 91.3809 34.5033 92.4067 34.5033 93.6739C34.4996 127.957 63.5926 157.332 97.9922 157.332C132.369 157.332 161.489 127.975 161.481 93.6739C161.481 92.4067 162.507 91.3809 163.774 91.3809C165.041 91.3809 166.067 92.4067 166.067 93.6739C166.078 128.462 134.326 164.344 97.9959 164.234Z" fill="#244C43"/>
<path d="M42.0914 100.719C41.3899 100.719 40.696 100.398 40.2472 99.7912C38.3765 97.2643 35.4499 95.8161 32.2102 95.8161H32.2064C28.9743 95.8161 26.0476 97.2643 24.1807 99.7912C23.4264 100.81 21.9933 101.024 20.9712 100.274C19.9492 99.5234 19.738 98.0865 20.4885 97.0644C23.2266 93.3571 27.4959 91.23 32.2026 91.23H32.2064C36.9132 91.23 41.1863 93.3571 43.9319 97.0644C44.6862 98.0827 44.4712 99.5197 43.4529 100.274C43.0418 100.572 42.5628 100.719 42.0914 100.719Z" fill="#244C43"/>
<path d="M173.659 100.874C172.957 100.874 172.263 100.553 171.815 99.9457C169.948 97.4189 167.014 95.9706 163.778 95.9706H163.774C160.542 95.9706 157.615 97.4189 155.748 99.9457C154.994 100.964 153.557 101.179 152.539 100.428C151.52 99.6742 151.305 98.241 152.06 97.219C154.798 93.5154 159.067 91.3845 163.774 91.3845H163.778C168.484 91.3845 172.757 93.5116 175.503 97.219C176.257 98.2373 176.042 99.6742 175.024 100.428C174.609 100.726 174.13 100.874 173.659 100.874Z" fill="#244C43"/>
</svg>
